<?xml version="1.0" encoding="UTF-8"?>
<svg version="1.1" xmlns="http://www.w3.org/2000/svg" width="119" height="119">
<path d="M0 0 C1.28003906 0.49113281 1.28003906 0.49113281 2.5859375 0.9921875 C17.68245206 7.51654868 27.84333797 21.62401113 33.9765625 36.34375 C38.49164722 49.67801891 37.44909338 66.18921755 32 79 C31.50886719 80.28003906 31.50886719 80.28003906 31.0078125 81.5859375 C24.48345132 96.68245206 10.37598887 106.84333797 -4.34375 112.9765625 C-17.67801891 117.49164722 -34.18921755 116.44909338 -47 111 C-47.85335937 110.67257813 -48.70671875 110.34515625 -49.5859375 110.0078125 C-64.68245206 103.48345132 -74.84333797 89.37598887 -80.9765625 74.65625 C-85.49164722 61.32198109 -84.44909338 44.81078245 -79 32 C-78.67257813 31.14664063 -78.34515625 30.29328125 -78.0078125 29.4140625 C-71.48345132 14.31754794 -57.37598887 4.15666203 -42.65625 -1.9765625 C-29.32198109 -6.49164722 -12.81078245 -5.44909338 0 0 Z " fill="#01070D" transform="translate(83,4)"/>
<path d="M0 0 C0.04772451 3.12936413 -0.11925052 5.98610582 -1 9 C-2.63659412 10.6155582 -4.31483357 11.65105422 -6.27734375 12.83984375 C-9.12099157 14.7549535 -9.950976 16.79122069 -11 20 C-11.76978797 26.02819877 -10.76144949 29.59716404 -8 35 C-9.2345779 47.50681095 -15.4366154 60.87323079 -21 72 C-24.63 72 -28.26 72 -32 72 C-32 71.34 -32 70.68 -32 70 C-33.97956441 70.14033111 -35.95865141 70.2874123 -37.9375 70.4375 C-39.03964844 70.51871094 -40.14179687 70.59992188 -41.27734375 70.68359375 C-43.91109903 70.70418084 -43.91109903 70.70418084 -45 72 C-45.16666667 74.5 -45.16666667 74.5 -45 77 C-43.18884044 78.81115956 -40.38721773 78.38199448 -37.9375 78.5625 C-36.28041016 78.68818359 -36.28041016 78.68818359 -34.58984375 78.81640625 C-33.73519531 78.87699219 -32.88054688 78.93757813 -32 79 C-32 78.34 -32 77.68 -32 77 C-29.03 77 -26.06 77 -23 77 C-23.433125 78.134375 -23.86625 79.26875 -24.3125 80.4375 C-24.87567858 81.95808218 -25.4381405 83.47892992 -26 85 C-26.42925781 86.11568359 -26.42925781 86.11568359 -26.8671875 87.25390625 C-28.74603973 92.3983826 -29.4725538 96.51837597 -29 102 C-28.34 102.99 -27.68 103.98 -27 105 C-26.875 108.1875 -26.875 108.1875 -27 111 C-39.63094354 104.95911396 -48.52922324 93.01822746 -53.375 80.125 C-58.1598922 66.18640099 -57.75543985 49.53100097 -52 36 C-51.67257813 35.14664063 -51.34515625 34.29328125 -51.0078125 33.4140625 C-44.98174677 19.47053814 -31.76973274 8.72723397 -18 3 C-11.94966873 0.91655259 -6.40529979 -0.42701999 0 0 Z " fill="#0583BD" transform="translate(56,0)"/>
<path d="M0 0 C11.43369933 -1.06359994 24.29996309 4.39361693 33.07421875 11.484375 C45.02426779 21.91083868 54.88986909 34.99414202 56.18457031 51.32861328 C56.77053265 62.47243659 56.42707452 72.59197713 52 83 C51.50886719 84.28003906 51.50886719 84.28003906 51.0078125 85.5859375 C46.75565467 95.42487204 38.37929302 103.52991299 30 110 C29.34 110 28.68 110 28 110 C27.79913557 106.28400809 27.8480563 105.22791555 30 102 C30.57342412 96.18691297 29.16484581 91.94846537 27 86.6875 C24 79.19425676 24 79.19425676 24 77 C26.97 77 29.94 77 33 77 C33 77.66 33 78.32 33 79 C34.97956441 78.85966889 36.95865141 78.7125877 38.9375 78.5625 C40.03964844 78.48128906 41.14179687 78.40007812 42.27734375 78.31640625 C44.91109903 78.29581916 44.91109903 78.29581916 46 77 C46.16666667 74.5 46.16666667 74.5 46 72 C44.18884044 70.18884044 41.38721773 70.61800552 38.9375 70.4375 C37.28041016 70.31181641 37.28041016 70.31181641 35.58984375 70.18359375 C34.73519531 70.12300781 33.88054687 70.06242187 33 70 C33 70.66 33 71.32 33 72 C29.04 72 25.08 72 21 72 C19.44269282 67.85903948 17.894794 63.71471654 16.35522461 59.56713867 C15.8310559 58.15897001 15.30440334 56.75172318 14.77514648 55.34545898 C14.01138456 53.31475929 13.25685052 51.28082542 12.50390625 49.24609375 C12.04830322 48.02591553 11.5927002 46.8057373 11.12329102 45.54858398 C8.83763112 38.3279653 8.98963991 34.863621 12 28 C12.58359941 24.13642416 12.38106212 20.88245965 10.8125 17.25 C8.00748639 13.76791414 4.69798836 11.46532558 1 9 C0.48828125 6.8359375 0.48828125 6.8359375 0.3125 4.375 C0.24675781 3.55773437 0.18101563 2.74046875 0.11328125 1.8984375 C0.07589844 1.27195313 0.03851563 0.64546875 0 0 Z " fill="#0584BD" transform="translate(63,0)"/>
<path d="M0 0 C4.29 0 8.58 0 13 0 C13.33 2.31 13.66 4.62 14 7 C15.32 7 16.64 7 18 7 C18.33 4.69 18.66 2.38 19 0 C22.96 0 26.92 0 31 0 C34.10887659 6.86662421 36.98494335 13.80078469 39.75 20.8125 C40.16121094 21.83537109 40.57242188 22.85824219 40.99609375 23.91210938 C41.38410156 24.89630859 41.77210937 25.88050781 42.171875 26.89453125 C42.6992627 28.22254761 42.6992627 28.22254761 43.23730469 29.57739258 C44 32 44 32 44 36 C41.93950145 36.81756238 39.87651147 37.62884734 37.8125 38.4375 C36.66394531 38.88996094 35.51539063 39.34242187 34.33203125 39.80859375 C21.07390388 44.54919029 4.86842558 43.31016357 -8 38 C-8.9384375 37.62617187 -9.876875 37.25234375 -10.84375 36.8671875 C-11.91109375 36.43792969 -11.91109375 36.43792969 -13 36 C-10.886191 29.60630849 -8.71639648 23.23383183 -6.5 16.875 C-6.20480469 16.02035156 -5.90960938 15.16570312 -5.60546875 14.28515625 C-3.91295332 9.43129043 -2.08788407 4.69773917 0 0 Z " fill="#0584BD" transform="translate(44,77)"/>
<path d="M0 0 C1.32 0 2.64 0 4 0 C15 28.08707865 15 28.08707865 15 31 C11.7 31 8.4 31 5 31 C4.67 28.69 4.34 26.38 4 24 C2.68 23.67 1.36 23.34 0 23 C-0.33 25.64 -0.66 28.28 -1 31 C-4.3 31 -7.6 31 -11 31 C-9.63287812 24.01407875 -7.52641226 17.62279881 -4.9375 11 C-4.57333984 10.04738281 -4.20917969 9.09476563 -3.83398438 8.11328125 C-1.14513465 1.14513465 -1.14513465 1.14513465 0 0 Z " fill="#0F7FB2" transform="translate(58,41)"/>
<path d="M0 0 C2.375 0.9375 2.375 0.9375 4 3 C4.63273872 6.1222995 4.64663246 8.87929554 4 12 C1.875 14.625 1.875 14.625 -1 16 C-4.95743993 16.08076408 -6.45889393 15.49838717 -9.375 12.8125 C-11.31199984 9.46000028 -11.72855217 7.80466131 -11 4 C-7.6239116 0.22672473 -4.99623432 -0.74412001 0 0 Z " fill="#0E7DAF" transform="translate(63,17)"/>
<path d="M0 0 C1.32 0 2.64 0 4 0 C7.27323474 7.01842425 8.70590493 13.26529967 9 21 C8.01 21.66 7.02 22.32 6 23 C5.34 22.67 4.68 22.34 4 22 C4 21.34 4 20.68 4 20 C2.35 20.33 0.7 20.66 -1 21 C-1 20.34 -1 19.68 -1 19 C-2.32 19 -3.64 19 -5 19 C-5 18.34 -5 17.68 -5 17 C-4.34 17 -3.68 17 -3 17 C-3.0309375 15.7934375 -3.0309375 15.7934375 -3.0625 14.5625 C-3 12 -3 12 -2 11 C-1.79224439 9.33795513 -1.63281745 7.66970509 -1.5 6 C-1.11111111 1.11111111 -1.11111111 1.11111111 0 0 Z " fill="#0882B9" transform="translate(58,41)"/>
<path d="M0 0 C0.53109375 0.31710938 1.0621875 0.63421875 1.609375 0.9609375 C4.54535848 2.2370349 7.06174329 2.41707021 10.25 2.625 C11.32765625 2.69976562 12.4053125 2.77453125 13.515625 2.8515625 C14.33546875 2.90054688 15.1553125 2.94953125 16 3 C16 2.34 16 1.68 16 1 C18.97 1 21.94 1 25 1 C24.01 3.97 23.02 6.94 22 10 C21.67 10 21.34 10 21 10 C21.33 7.69 21.66 5.38 22 3 C20.72769531 3.49113281 20.72769531 3.49113281 19.4296875 3.9921875 C15.79809989 5.05932828 12.89663699 5.20197218 9.125 5.125 C7.39636719 5.09792969 7.39636719 5.09792969 5.6328125 5.0703125 C4.76398437 5.04710938 3.89515625 5.02390625 3 5 C3 4.34 3 3.68 3 3 C2.01 2.67 1.02 2.34 0 2 C0 1.34 0 0.68 0 0 Z " fill="#1779A8" transform="translate(8,76)"/>
<path d="M0 0 C4.29 0 8.58 0 13 0 C13.33 2.31 13.66 4.62 14 7 C15.65 7 17.3 7 19 7 C18.67 7.99 18.34 8.98 18 10 C13.25 9.25 13.25 9.25 11 7 C11 5.35 11 3.7 11 2 C7.7 2 4.4 2 1 2 C1 3.32 1 4.64 1 6 C0.34 6 -0.32 6 -1 6 C-0.67 4.02 -0.34 2.04 0 0 Z " fill="#187CA8" transform="translate(44,77)"/>
<path d="M0 0 C3.63 0 7.26 0 11 0 C10.67 1.32 10.34 2.64 10 4 C10.66 4 11.32 4 12 4 C10.70700306 6.88437779 9.34058637 8.87219421 7 11 C7.33 9.35 7.66 7.7 8 6 C5.36 5.67 2.72 5.34 0 5 C0 4.34 0 3.68 0 3 C2.64 3 5.28 3 8 3 C8 2.34 8 1.68 8 1 C5.36 1 2.72 1 0 1 C0 0.67 0 0.34 0 0 Z " fill="#001727" transform="translate(24,72)"/>
<path d="M0 0 C0.66 0.33 1.32 0.66 2 1 C2.51953125 4.0546875 2.51953125 4.0546875 2.8125 7.875 C2.92207031 9.13054687 3.03164062 10.38609375 3.14453125 11.6796875 C3 15 3 15 1.63671875 16.9453125 C0 18 0 18 -2 18 C-2.20086443 14.28400809 -2.1519437 13.22791555 0 10 C0.24150773 7.48415109 0.24150773 7.48415109 0.125 4.8125 C0.10695313 3.91144531 0.08890625 3.01039062 0.0703125 2.08203125 C0.04710938 1.39496094 0.02390625 0.70789063 0 0 Z " fill="#137EAE" transform="translate(93,92)"/>
<path d="M0 0 C0.33 0 0.66 0 1 0 C1.19294408 4.82360189 0.75747614 8.49646738 -1 13 C-1.66 13 -2.32 13 -3 13 C-3.12375 13.639375 -3.2475 14.27875 -3.375 14.9375 C-3.58125 15.618125 -3.7875 16.29875 -4 17 C-4.66 17.33 -5.32 17.66 -6 18 C-4.23536928 11.89262558 -2.30442525 5.92566493 0 0 Z " fill="#1576A4" transform="translate(56,45)"/>
<path d="M0 0 C1.12793443 3.33081308 0.87365459 5.21699392 -0.3125 8.5 C-0.57675781 9.2528125 -0.84101562 10.005625 -1.11328125 10.78125 C-1.96902773 12.9225011 -2.93588816 14.9554183 -4 17 C-4.66 17 -5.32 17 -6 17 C-4.13236819 11.27789404 -2.14710968 5.62338249 0 0 Z " fill="#1876A5" transform="translate(37,96)"/>
<path d="M0 0 C2.97 0 5.94 0 9 0 C8.01 2.97 7.02 5.94 6 9 C5.67 9 5.34 9 5 9 C5.33 6.69 5.66 4.38 6 2 C4.02 2.33 2.04 2.66 0 3 C0 2.01 0 1.02 0 0 Z " fill="#1A80B0" transform="translate(24,77)"/>
<path d="M0 0 C1.6852084 4.07679159 0.16939007 6.83075593 -1.4375 10.75 C-1.91058594 11.92046875 -2.38367187 13.0909375 -2.87109375 14.296875 C-3.24363281 15.18890625 -3.61617187 16.0809375 -4 17 C-5.58927373 11.90760881 -3.63619875 7.90859626 -2 3 C-1.34 3 -0.68 3 0 3 C0 2.01 0 1.02 0 0 Z " fill="#001223" transform="translate(37,92)"/>
<path d="M0 0 C0.66 0 1.32 0 2 0 C2.3152595 5.98993047 1.68219822 9.63560356 -1 15 C-1.66 15 -2.32 15 -3 15 C-2.7834375 14.33613281 -2.566875 13.67226563 -2.34375 12.98828125 C-2.0653125 12.10527344 -1.786875 11.22226562 -1.5 10.3125 C-1.2215625 9.44238281 -0.943125 8.57226562 -0.65625 7.67578125 C-0.00149195 5.00608323 0.11831495 2.73603316 0 0 Z " fill="#011826" transform="translate(47,34)"/>
<path d="M0 0 C5.75 -0.125 5.75 -0.125 8 1 C7.34 2.32 6.68 3.64 6 5 C3.69 4.01 1.38 3.02 -1 2 C-0.67 1.34 -0.34 0.68 0 0 Z " fill="#0485C1" transform="translate(57,19)"/>
<path d="M0 0 C0.66 0 1.32 0 2 0 C4.09230769 4.43076923 4.09230769 4.43076923 3.625 7.3125 C3.41875 7.869375 3.2125 8.42625 3 9 C3.99 9 4.98 9 6 9 C6 9.66 6 10.32 6 11 C3.525 10.01 3.525 10.01 1 9 C0.67 6.03 0.34 3.06 0 0 Z " fill="#13719C" transform="translate(63,0)"/>
<path d="M0 0 C0.66 0 1.32 0 2 0 C2.66 1.65 3.32 3.3 4 5 C4.66 4.67 5.32 4.34 6 4 C6 5.65 6 7.3 6 9 C5.01 9.33 4.02 9.66 3 10 C2.01 6.7 1.02 3.4 0 0 Z " fill="#001324" transform="translate(85,102)"/>
<path d="M0 0 C0.66 0.33 1.32 0.66 2 1 C-0.64 3.64 -3.28 6.28 -6 9 C-6 6 -6 6 -3.5625 3.375 C-2.716875 2.59125 -1.87125 1.8075 -1 1 C-0.67 0.67 -0.34 0.34 0 0 Z " fill="#001728" transform="translate(52,10)"/>
<path d="M0 0 C4.26086957 6.39130435 4.26086957 6.39130435 3.625 10.3125 C3.41875 10.869375 3.2125 11.42625 3 12 C0.97649676 8.96474514 0.67875982 7.80573798 0.375 4.3125 C0.30023438 3.50425781 0.22546875 2.69601563 0.1484375 1.86328125 C0.09945312 1.24839844 0.05046875 0.63351563 0 0 Z " fill="#16719C" transform="translate(84,101)"/>
<path d="M0 0 C0.556875 0.391875 1.11375 0.78375 1.6875 1.1875 C1.6875 1.5175 1.6875 1.8475 1.6875 2.1875 C-1.2825 2.8475 -4.2525 3.5075 -7.3125 4.1875 C-7.3125 3.5275 -7.3125 2.8675 -7.3125 2.1875 C-3.09973404 -1.08909574 -3.09973404 -1.08909574 0 0 Z " fill="#000A18" transform="translate(61.3125,14.8125)"/>
</svg>
