<?xml version="1.0" encoding="UTF-8"?>
<svg version="1.1" xmlns="http://www.w3.org/2000/svg" width="87" height="86">
<path d="M0 0 C11.28160524 7.66613531 19.69096314 17.03428238 22.6328125 30.7890625 C23.50976005 45.29463755 22.21204966 57.18662439 12.6328125 68.7890625 C4.80227348 77.31875678 -3.12565513 82.46721205 -14.82421875 83.26171875 C-29.90664489 83.84655759 -40.83470762 81.95848565 -52.19726562 71.44775391 C-61.47894269 62.0884189 -64.66092339 50.65002757 -64.68408203 37.78540039 C-64.47477821 24.90546321 -58.87766685 14.91101841 -49.7421875 6.0390625 C-36.81494311 -4.83200752 -15.45321264 -8.06450456 0 0 Z " fill="#052D41" transform="translate(64.3671875,3.2109375)"/>
<path d="M0 0 C2 2 2 2 2.24050903 4.17666626 C2.2338472 5.52901871 2.2338472 5.52901871 2.22705078 6.90869141 C2.22689972 7.92959869 2.22674866 8.95050598 2.22659302 10.00234985 C2.21627045 11.10759003 2.20594788 12.2128302 2.1953125 13.3515625 C2.1924826 14.4807309 2.18965271 15.60989929 2.18673706 16.77328491 C2.17551462 20.39062971 2.15040622 24.00772966 2.125 27.625 C2.11497287 30.0729131 2.10584656 32.52083007 2.09765625 34.96875 C2.07556857 40.97925064 2.04207074 46.98960783 2 53 C0.84242187 53.06058594 -0.31515625 53.12117188 -1.5078125 53.18359375 C-3.04688457 53.26805502 -4.58594655 53.35270018 -6.125 53.4375 C-6.88554688 53.47681641 -7.64609375 53.51613281 -8.4296875 53.55664062 C-9.17734375 53.59853516 -9.925 53.64042969 -10.6953125 53.68359375 C-11.7164917 53.73858032 -11.7164917 53.73858032 -12.75830078 53.79467773 C-15.52318424 54.04791962 -18.26131995 54.54355333 -21 55 C-21 38.5 -21 22 -21 5 C-13.30703558 0.60402033 -8.54821216 -0.42741061 0 0 Z " fill="#000204" transform="translate(68,6)"/>
<path d="M0 0 C1.30195313 -0.03738281 2.60390625 -0.07476563 3.9453125 -0.11328125 C7.875 0.3125 7.875 0.3125 14.875 4.3125 C14.875 20.8125 14.875 37.3125 14.875 54.3125 C13.555 53.9825 12.235 53.6525 10.875 53.3125 C9.36229395 53.17120882 7.84571872 53.06787183 6.328125 52.99609375 C5.06162109 52.93325195 5.06162109 52.93325195 3.76953125 52.86914062 C2.89683594 52.82982422 2.02414063 52.79050781 1.125 52.75 C0.23683594 52.70681641 -0.65132812 52.66363281 -1.56640625 52.61914062 C-3.75245963 52.51336385 -5.93862089 52.41127454 -8.125 52.3125 C-8.15026739 45.06763449 -8.1678318 37.82278026 -8.17993164 30.57788086 C-8.18497356 28.11107967 -8.19180691 25.64428148 -8.20043945 23.17749023 C-8.21251125 19.64045471 -8.21822956 16.10345855 -8.22265625 12.56640625 C-8.22781754 11.45600479 -8.23297882 10.34560333 -8.23829651 9.20155334 C-8.23837204 8.18057053 -8.23844757 7.15958771 -8.23852539 6.10766602 C-8.240746 5.20387711 -8.24296661 4.3000882 -8.24525452 3.36891174 C-7.97436171 -1.26348932 -3.78161702 0.07030403 0 0 Z " fill="#000204" transform="translate(25.125,6.6875)"/>
<path d="M0 0 C0 16.83 0 33.66 0 51 C6.27 51 12.54 51 19 51 C20.32 51.66 21.64 52.32 23 53 C23 36.83 23 20.66 23 4 C23.33 4 23.66 4 24 4 C24.02531484 11.35065985 24.04285202 18.7013085 24.05493164 26.05200195 C24.05996641 28.55363383 24.06679461 31.05526276 24.07543945 33.55688477 C24.08754238 37.14860766 24.09323682 40.74029172 24.09765625 44.33203125 C24.10281754 45.45398392 24.10797882 46.57593658 24.11329651 47.73188782 C24.11337204 48.77274033 24.11344757 49.81359283 24.11352539 50.88598633 C24.115746 51.80309891 24.11796661 52.72021149 24.12025452 53.66511536 C24 56 24 56 23 59 C23.33 59.66 23.66 60.32 24 61 C27.02934491 61.65772428 27.02934491 61.65772428 30 62 C29.34 62.66 28.68 63.32 28 64 C24.73277754 63.82804092 23.39057348 63.43143412 21.17041016 60.97900391 C18.48720961 58.53243207 17.22752098 58.4925669 13.6484375 58.4609375 C12.63265625 58.43773437 11.616875 58.41453125 10.5703125 58.390625 C9.51585938 58.38546875 8.46140625 58.3803125 7.375 58.375 C5.27852687 58.34955736 3.18213074 58.3161081 1.0859375 58.2734375 C-0.3055249 58.26449463 -0.3055249 58.26449463 -1.72509766 58.25537109 C-4 58 -4 58 -6 56 C-6.92420093 53.18203064 -7.17578252 50.47773393 -7.31640625 47.52612305 C-7.35894531 46.64808517 -7.40148438 45.7700473 -7.4453125 44.86540222 C-7.60967261 40.86299802 -7.75698131 36.86035154 -7.88720703 32.85668945 C-7.96223132 30.74870183 -8.05168827 28.64117706 -8.15576172 26.53442383 C-8.30519242 23.4854169 -8.40738589 20.43791775 -8.5 17.38671875 C-8.55486572 16.4510759 -8.60973145 15.51543304 -8.66625977 14.55143738 C-8.74240383 10.65013886 -8.7427578 8.04856075 -6.44140625 4.79971313 C-1.73706957 0 -1.73706957 0 0 0 Z " fill="#14739F" transform="translate(17,8)"/>
<path d="M0 0 C3.35369923 -0.14647927 6.7065658 -0.23445502 10.0625 -0.3125 C11.00544922 -0.35439453 11.94839844 -0.39628906 12.91992188 -0.43945312 C19.77296698 -0.55884415 22.72285768 0.69157572 28 5 C31.63825863 5.25411568 31.63825863 5.25411568 35 4 C36.00740234 2.98486328 36.00740234 2.98486328 37.03515625 1.94921875 C41.48991028 -0.97953258 45.60937998 -0.43170735 50.8125 -0.25 C51.79154297 -0.23195313 52.77058594 -0.21390625 53.77929688 -0.1953125 C56.18720771 -0.14832887 58.59309335 -0.08265694 61 0 C58.18342152 2.91420685 55.52009666 5.5592043 52.0625 7.6875 C51.43472656 8.08324219 50.80695312 8.47898437 50.16015625 8.88671875 C40.4237116 13.9045971 25.57164408 14.04672275 15.0703125 11.08984375 C9.13661269 8.74203123 4.49983311 5.49983311 0 1 C0 0.67 0 0.34 0 0 Z " fill="#0681B9" transform="translate(13,74)"/>
<path d="M0 0 C1.98 1.65 3.96 3.3 6 5 C5.01 5.495 5.01 5.495 4 6 C4 21.84 4 37.68 4 54 C-3.875 55.125 -3.875 55.125 -7 54 C-7 53.34 -7 52.68 -7 52 C-4.03 51.505 -4.03 51.505 -1 51 C-0.67 34.17 -0.34 17.34 0 0 Z " fill="#0784BF" transform="translate(71,9)"/>
<path d="M0 0 C0 17.82 0 35.64 0 54 C-0.99 54 -1.98 54 -3 54 C-3.14285332 47.2190033 -3.28522015 40.4379965 -3.42724609 33.65698242 C-3.47563612 31.34936287 -3.5241382 29.04174567 -3.57275391 26.73413086 C-3.64254631 23.42041624 -3.71193791 20.10669344 -3.78125 16.79296875 C-3.80312378 15.7585112 -3.82499756 14.72405365 -3.84753418 13.6582489 C-3.86755493 12.6974794 -3.88757568 11.7367099 -3.90820312 10.74682617 C-3.92596802 9.90077316 -3.94373291 9.05472015 -3.96203613 8.18302917 C-4.0511276 3.06001935 -4.0511276 3.06001935 -2.5625 1.3125 C-1 0 -1 0 0 0 Z " fill="#0884BD" transform="translate(16,9)"/>
<path d="M0 0 C0.33 0 0.66 0 1 0 C1.33 15.84 1.66 31.68 2 48 C2.66 48 3.32 48 4 48 C3.67 49.98 3.34 51.96 3 54 C1.02 54 -0.96 54 -3 54 C-4.125 51.6875 -4.125 51.6875 -5 49 C-4.34 48.01 -3.68 47.02 -3 46 C-2.55099704 43.12594069 -2.55099704 43.12594069 -2.40625 39.83203125 C-2.33277344 38.57986816 -2.25929687 37.32770508 -2.18359375 36.03759766 C-1.82396542 28.54587318 -1.63110628 21.04876679 -1.44775391 13.55102539 C-1.3963401 11.49612385 -1.33913635 9.44144656 -1.28125 7.38671875 C-1.25095703 6.18233154 -1.22066406 4.97794434 -1.18945312 3.73706055 C-1 1 -1 1 0 0 Z " fill="#0484BF" transform="translate(44,16)"/>
<path d="M0 0 C0.99 0.33 1.98 0.66 3 1 C2.9063415 7.17498858 2.80021904 13.34959084 2.68261719 19.52416992 C2.64436986 21.62404537 2.6095096 23.72398538 2.578125 25.82397461 C2.5323825 28.84512381 2.47440277 31.86583016 2.4140625 34.88671875 C2.39673569 36.29167854 2.39673569 36.29167854 2.37905884 37.72502136 C2.18881633 46.15571508 2.18881633 46.15571508 0 50 C-2.44712914 51.22356457 -4.13300943 51.15672149 -6.8671875 51.2109375 C-8.31931641 51.25347656 -8.31931641 51.25347656 -9.80078125 51.296875 C-11.84226873 51.34875524 -13.88396269 51.3930864 -15.92578125 51.4296875 C-16.89644531 51.460625 -17.86710937 51.4915625 -18.8671875 51.5234375 C-20.19919189 51.5531665 -20.19919189 51.5531665 -21.55810547 51.58349609 C-24.4204375 52.07171229 -25.83837851 53.10740264 -28 55 C-28 53.68 -28 52.36 -28 51 C-22 49 -22 49 0 48 C0 32.16 0 16.32 0 0 Z " fill="#1C698E" transform="translate(75,15)"/>
<path d="M0 0 C0.33 0 0.66 0 1 0 C1 16.83 1 33.66 1 51 C7.27 51 13.54 51 20 51 C20.66 51.66 21.32 52.32 22 53 C19.78282702 55.40855002 18.03570991 56.89300243 14.71240234 57.23632812 C12.02206535 57.16900595 9.36802223 56.98868961 6.6875 56.75 C5.75615234 56.68425781 4.82480469 56.61851563 3.86523438 56.55078125 C1.57467158 56.38633059 -0.71251239 56.20220182 -3 56 C-1.515 55.505 -1.515 55.505 0 55 C0 36.85 0 18.7 0 0 Z " fill="#1578A6" transform="translate(16,8)"/>
<path d="M0 0 C0.33 0 0.66 0 1 0 C1.02526692 7.38728102 1.0428316 14.77455098 1.05493164 22.16186523 C1.05997363 24.67716895 1.06680703 27.19246972 1.07543945 29.70776367 C1.08751094 33.31429775 1.09322949 36.92079323 1.09765625 40.52734375 C1.10281754 41.65961899 1.10797882 42.79189423 1.11329651 43.95848083 C1.11340981 45.51998619 1.11340981 45.51998619 1.11352539 47.11303711 C1.115746 48.03459091 1.11796661 48.95614471 1.12025452 49.90562439 C1 52 1 52 0 53 C-1.99958364 53.04080783 -4.00045254 53.04254356 -6 53 C-6 53.66 -6 54.32 -6 55 C-4.68 55.33 -3.36 55.66 -2 56 C-3.53720703 56.09087891 -3.53720703 56.09087891 -5.10546875 56.18359375 C-6.46615695 56.26805026 -7.82683343 56.35269567 -9.1875 56.4375 C-9.86103516 56.47681641 -10.53457031 56.51613281 -11.22851562 56.55664062 C-14.89699102 56.78927565 -18.41694206 57.17207011 -22 58 C-22 57.34 -22 56.68 -22 56 C-22.66 56 -23.32 56 -24 56 C-24 55.34 -24 54.68 -24 54 C-17 51 -17 51 0 51 C0 34.17 0 17.34 0 0 Z " fill="#117AAA" transform="translate(70,8)"/>
<path d="M0 0 C4.69034848 6.25379798 5.38791375 12.17769772 5.375 19.75 C5.37628906 20.53552246 5.37757812 21.32104492 5.37890625 22.13037109 C5.26127035 28.63911182 3.89483945 34.13278076 1 40 C0.67 40 0.34 40 0 40 C0 26.8 0 13.6 0 0 Z " fill="#0D80B5" transform="translate(82,23)"/>
<path d="M0 0 C0.33 0 0.66 0 1 0 C1 13.2 1 26.4 1 40 C-3.69034848 33.74620202 -4.38791375 27.82230228 -4.375 20.25 C-4.37628906 19.46447754 -4.37757813 18.67895508 -4.37890625 17.86962891 C-4.26127035 11.36088818 -2.89483945 5.86721924 0 0 Z " fill="#117FB3" transform="translate(4,23)"/>
<path d="M0 0 C0.33 0 0.66 0 1 0 C1.02531484 7.35065985 1.04285202 14.7013085 1.05493164 22.05200195 C1.05996641 24.55363383 1.06679461 27.05526276 1.07543945 29.55688477 C1.08754238 33.14860766 1.09323682 36.74029172 1.09765625 40.33203125 C1.10281754 41.45398392 1.10797882 42.57593658 1.11329651 43.73188782 C1.11340981 45.29316658 1.11340981 45.29316658 1.11352539 46.88598633 C1.115746 47.80309891 1.11796661 48.72021149 1.12025452 49.66511536 C1 52 1 52 0 55 C0.33 55.66 0.66 56.32 1 57 C4.02934491 57.65772428 4.02934491 57.65772428 7 58 C6.34 58.66 5.68 59.32 5 60 C1.7366607 59.8282453 0.39205494 59.43316932 -1.82519531 56.98339844 C-4.51626584 54.52917112 -5.82963114 54.47045264 -9.421875 54.390625 C-10.44667969 54.35839844 -11.47148437 54.32617188 -12.52734375 54.29296875 C-13.59082031 54.27878906 -14.65429688 54.26460937 -15.75 54.25 C-16.82894531 54.22035156 -17.90789063 54.19070312 -19.01953125 54.16015625 C-21.67976244 54.08953064 -24.33912102 54.03679804 -27 54 C-27 53.67 -27 53.34 -27 53 C-20.07 53 -13.14 53 -6 53 C-5.34 51.68 -4.68 50.36 -4 49 C-2.68 49 -1.36 49 0 49 C0 32.83 0 16.66 0 0 Z " fill="#126C96" transform="translate(40,12)"/>
<path d="M0 0 C0.66 0 1.32 0 2 0 C1.67 0.99 1.34 1.98 1 3 C0.88599048 4.51834207 0.82387323 6.04089591 0.79467773 7.56323242 C0.7647599 8.94432442 0.7647599 8.94432442 0.73423767 10.35331726 C0.71752518 11.34402725 0.70081268 12.33473724 0.68359375 13.35546875 C0.66281265 14.37224197 0.64203156 15.3890152 0.62062073 16.43659973 C0.55519952 19.68683063 0.49627463 22.93714277 0.4375 26.1875 C0.39430773 28.38998238 0.35069321 30.59245653 0.30664062 32.79492188 C0.19952573 38.19652853 0.09774543 43.59821612 0 49 C1.65 49 3.3 49 5 49 C1.25 51 1.25 51 -1 51 C-1.02526787 43.89755001 -1.04283201 36.79511152 -1.05493164 29.69262695 C-1.05997349 27.27432828 -1.06680678 24.85603267 -1.07543945 22.43774414 C-1.08751157 18.97020717 -1.09322963 15.50271034 -1.09765625 12.03515625 C-1.10281754 10.94662857 -1.10797882 9.85810089 -1.11329651 8.73658752 C-1.11337204 7.73562546 -1.11344757 6.73466339 -1.11352539 5.70336914 C-1.115746 4.81734512 -1.11796661 3.93132111 -1.12025452 3.01844788 C-1 1 -1 1 0 0 Z " fill="#000D1A" transform="translate(48,10)"/>
<path d="M0 0 C3.41637953 -0.11632513 6.83224897 -0.18728897 10.25 -0.25 C11.70212891 -0.30027344 11.70212891 -0.30027344 13.18359375 -0.3515625 C20.4019949 -0.45112665 20.4019949 -0.45112665 23.671875 2.015625 C24.32929687 2.99789062 24.32929687 2.99789062 25 4 C22.36 4 19.72 4 17 4 C17 3.34 17 2.68 17 2 C11.72 2 6.44 2 1 2 C0.67 1.34 0.34 0.68 0 0 Z " fill="#106F9A" transform="translate(13,74)"/>
<path d="M0 0 C0.87914063 0.00902344 1.75828125 0.01804688 2.6640625 0.02734375 C4.8178271 0.05075423 6.97145014 0.0866199 9.125 0.125 C9.455 0.785 9.785 1.445 10.125 2.125 C9.15675293 2.14687378 9.15675293 2.14687378 8.16894531 2.16918945 C5.23703427 2.2437787 2.30624835 2.3404024 -0.625 2.4375 C-1.64078125 2.46005859 -2.6565625 2.48261719 -3.703125 2.50585938 C-4.6828125 2.54130859 -5.6625 2.57675781 -6.671875 2.61328125 C-7.57260742 2.63946533 -8.47333984 2.66564941 -9.40136719 2.69262695 C-12.2761643 3.19512061 -13.70304998 4.22121932 -15.875 6.125 C-15.875 4.805 -15.875 3.485 -15.875 2.125 C-10.49292923 -0.11605897 -5.71754456 -0.11193988 0 0 Z " fill="#11709B" transform="translate(62.875,63.875)"/>
</svg>
