<?xml version="1.0" encoding="UTF-8"?>
<svg version="1.1" xmlns="http://www.w3.org/2000/svg" width="220" height="87">
<path d="M0 0 C3.31248187 -0.02888146 6.62493167 -0.04675799 9.9375 -0.0625 C10.88302734 -0.07087891 11.82855469 -0.07925781 12.80273438 -0.08789062 C14.15141602 -0.09272461 14.15141602 -0.09272461 15.52734375 -0.09765625 C16.77632446 -0.10551147 16.77632446 -0.10551147 18.05053711 -0.11352539 C20 0 20 0 21 1 C21.08726223 2.78071246 21.10699041 4.5648314 21.09765625 6.34765625 C21.09443359 7.42724609 21.09121094 8.50683594 21.08789062 9.61914062 C21.07532227 11.32360352 21.07532227 11.32360352 21.0625 13.0625 C21.05798828 14.20267578 21.05347656 15.34285156 21.04882812 16.51757812 C21.03699747 19.34510351 21.0205141 22.1725264 21 25 C21.60328125 25.19335938 22.2065625 25.38671875 22.828125 25.5859375 C23.62734375 25.84632812 24.4265625 26.10671875 25.25 26.375 C26.03890625 26.63023438 26.8278125 26.88546875 27.640625 27.1484375 C29.86627958 27.95173667 31.90931672 28.89711662 34 30 C33.505 31.485 33.505 31.485 33 33 C31.37433394 32.52309796 29.74948689 32.04340334 28.125 31.5625 C27.22007813 31.29566406 26.31515625 31.02882813 25.3828125 30.75390625 C23 30 23 30 21 29 C23.48952921 31.66735273 25.63408134 33.55746343 29 35 C28.625 37.4375 28.625 37.4375 28 40 C27.01 40.495 27.01 40.495 26 41 C24.68748758 40.42005265 23.40016923 39.78300548 22.125 39.125 C14.44704468 35.82472674 6.01684872 36.26163876 -2.20922852 36.1418457 C-4 36 -4 36 -5 35 C-5.14115161 32.32941149 -5.04247107 29.67567762 -5 27 C-6.98 26.34 -8.96 25.68 -11 25 C-10.34 23.02 -9.68 21.04 -9 19 C-7.68 19.33 -6.36 19.66 -5 20 C-5.020625 18.824375 -5.04125 17.64875 -5.0625 16.4375 C-5.06947261 12.52586533 -4.64250343 8.85502056 -4 5 C-3.67 5 -3.34 5 -3 5 C-2.67 10.28 -2.34 15.56 -2 21 C1.63 22.65 5.26 24.3 9 26 C9 25.34 9 24.68 9 24 C11.97 23.67 14.94 23.34 18 23 C18.33 16.07 18.66 9.14 19 2 C12.73 2 6.46 2 0 2 C0 1.34 0 0.68 0 0 Z M-9 22 C-8.29216269 25.25819411 -8.29216269 25.25819411 -5.16430664 26.54980469 C-3.91800272 27.10210251 -2.66615957 27.64200519 -1.41015625 28.171875 C-0.7504332 28.45855042 -0.09071014 28.74522583 0.58900452 29.04058838 C1.98474657 29.64408897 3.38280999 30.24224468 4.78295898 30.83544922 C6.93130608 31.74737083 9.07032724 32.67889499 11.20898438 33.61328125 C12.56459368 34.19650048 13.92069779 34.77857125 15.27734375 35.359375 C15.9200975 35.63948425 16.56285126 35.91959351 17.2250824 36.20819092 C18.79263334 36.86608944 20.39449241 37.44107978 22 38 C22.66 37.67 23.32 37.34 24 37 C20.33019796 34.08828211 20.33019796 34.08828211 16 33 C15.67 32.34 15.34 31.68 15 31 C13.1276627 29.97341231 13.1276627 29.97341231 10.875 29.0625 C10.0603125 28.71574219 9.245625 28.36898437 8.40625 28.01171875 C7.6121875 27.67785156 6.818125 27.34398437 6 27 C4.80375 26.46375 3.6075 25.9275 2.375 25.375 C-3.14596566 22.99797117 -3.14596566 22.99797117 -9 22 Z M-3 29 C-3 30.65 -3 32.3 -3 34 C0.96 34 4.92 34 9 34 C3.43332479 30.21090402 3.43332479 30.21090402 -3 29 Z " fill="#11486C" transform="translate(27,23)"/>
<path d="M0 0 C1.65 0 3.3 0 5 0 C6.85856907 4.07189366 8.70976667 8.14703215 10.55419922 12.2253418 C11.18271447 13.61232601 11.81323667 14.99840259 12.44580078 16.38354492 C13.35457784 18.37443721 14.25609245 20.36847972 15.15625 22.36328125 C15.70087891 23.56251221 16.24550781 24.76174316 16.80664062 25.99731445 C18 29 18 29 18 32 C16.02 32 14.04 32 12 32 C10.515 28.535 10.515 28.535 9 25 C2.07 24.505 2.07 24.505 -5 24 C-5.309375 25.134375 -5.61875 26.26875 -5.9375 27.4375 C-7 31 -7 31 -8 32 C-9.66617115 32.04063832 -11.33388095 32.042721 -13 32 C-12.35057577 27.86454725 -10.99296423 24.41595212 -9.27734375 20.60546875 C-8.73916016 19.40341797 -8.20097656 18.20136719 -7.64648438 16.96289062 C-7.07693432 15.70437666 -6.50727145 14.44591375 -5.9375 13.1875 C-5.36346104 11.90971681 -4.78988839 10.63172403 -4.21679688 9.35351562 C-2.8157713 6.23358473 -1.41002202 3.11587282 0 0 Z M2 8 C1.32591692 9.26691507 0.66099503 10.53870749 0 11.8125 C-0.37125 12.52019531 -0.7425 13.22789063 -1.125 13.95703125 C-2.19685358 16.08920729 -2.19685358 16.08920729 -2 19 C0.97 19 3.94 19 7 19 C6.54917531 17.53932801 6.08906463 16.08151968 5.625 14.625 C5.36976562 13.81289063 5.11453125 13.00078125 4.8515625 12.1640625 C4.10145717 9.83540815 4.10145717 9.83540815 2 8 Z " fill="#050631" transform="translate(80,25)"/>
<path d="M0 0 C1.65 0 3.3 0 5 0 C5 1.65 5 3.3 5 5 C6.98 5 8.96 5 11 5 C10.67 6.65 10.34 8.3 10 10 C8.35 10 6.7 10 5 10 C5.33 13.63 5.66 17.26 6 21 C7.65 21.33 9.3 21.66 11 22 C11 23.65 11 25.3 11 27 C5.04296875 27.390625 5.04296875 27.390625 3 27 C0.41829477 24.64880417 0.02369662 23.26161073 -0.29296875 19.765625 C-0.25816406 18.60546875 -0.22335938 17.4453125 -0.1875 16.25 C-0.16042969 15.07953125 -0.13335937 13.9090625 -0.10546875 12.703125 C-0.07066406 11.81109375 -0.03585938 10.9190625 0 10 C-1.64630328 10.14042877 -3.29204179 10.28749329 -4.9375 10.4375 C-5.85402344 10.51871094 -6.77054688 10.59992187 -7.71484375 10.68359375 C-9.96159732 10.76044976 -9.96159732 10.76044976 -11 12 C-11.23653523 14.52596259 -11.42173692 17.03107207 -11.5625 19.5625 C-11.60568359 20.27341797 -11.64886719 20.98433594 -11.69335938 21.71679688 C-11.79971777 23.47761912 -11.90038846 25.2387832 -12 27 C-13.65 27 -15.3 27 -17 27 C-17 19.74 -17 12.48 -17 5 C-11.39 5 -5.78 5 0 5 C0 3.35 0 1.7 0 0 Z " fill="#070832" transform="translate(117,30)"/>
<path d="M0 0 C1.98 0 3.96 0 6 0 C7.65 4.29 9.3 8.58 11 13 C11.928125 10.89625 11.928125 10.89625 12.875 8.75 C14.17952126 5.79308515 15.53347983 2.88019276 17 0 C18.65 0 20.3 0 22 0 C20.25832548 6.60177579 17.97439486 12.99415611 15.5625 19.375 C15.27431396 20.15987793 14.98612793 20.94475586 14.68920898 21.75341797 C13.08478963 25.92625467 11.71922104 29.27016398 8 32 C4.25 32.25 4.25 32.25 1 32 C1 30.35 1 28.7 1 27 C2.98 27 4.96 27 7 27 C8.9636291 20.80068929 6.51406261 16.3402766 4.0625 10.6875 C3.30242551 8.87930945 2.54325916 7.0707368 1.78515625 5.26171875 C1.44363525 4.46725342 1.10211426 3.67278809 0.75024414 2.85424805 C0 1 0 1 0 0 Z " fill="#070730" transform="translate(185,35)"/>
<path d="M0 0 C-0.66 1.32 -1.32 2.64 -2 4 C-4.31 3.67 -6.62 3.34 -9 3 C-9.33 3.99 -9.66 4.98 -10 6 C-9.37351563 6.10957031 -8.74703125 6.21914063 -8.1015625 6.33203125 C-7.28429687 6.49058594 -6.46703125 6.64914063 -5.625 6.8125 C-4.81289062 6.96332031 -4.00078125 7.11414062 -3.1640625 7.26953125 C-1 8 -1 8 1 11 C0.86294821 14.28924289 0.57495811 16.28130237 -1.5 18.875 C-5.23347705 20.55506467 -8.9668711 20.57191699 -13 20 C-13.99 19.34 -14.98 18.68 -16 18 C-15.625 16.0625 -15.625 16.0625 -15 14 C-14.34 13.67 -13.68 13.34 -13 13 C-12.34 13.33 -11.68 13.66 -11 14 C-9.00039988 14.039992 -6.99952758 14.04346799 -5 14 C-5.80004474 11.85690054 -5.80004474 11.85690054 -7.77734375 11.25390625 C-9.21433058 10.79396652 -10.65183015 10.33562563 -12.08984375 9.87890625 C-14 9 -14 9 -16 6 C-15.78931155 3.19082062 -15.38405913 1.51207883 -13.6875 -0.75 C-9.02259648 -4.20548409 -4.58450594 -3.05633729 0 0 Z " fill="#0A0A33" transform="translate(157,37)"/>
<path d="M0 0 C1.65 0 3.3 0 5 0 C5 1.65 5 3.3 5 5 C6.98 5 8.96 5 11 5 C10.67 6.65 10.34 8.3 10 10 C9.01 10.33 8.02 10.66 7 11 C6.34 10.67 5.68 10.34 5 10 C5 13.96 5 17.92 5 22 C6.98 22 8.96 22 11 22 C10.67 23.65 10.34 25.3 10 27 C3.58718861 27.36298932 3.58718861 27.36298932 1.28125 25.9375 C-0.69137102 22.95451212 -0.28441673 20.33380768 -0.1875 16.8125 C-0.14689453 14.90404297 -0.14689453 14.90404297 -0.10546875 12.95703125 C-0.05326172 11.49330078 -0.05326172 11.49330078 0 10 C-1.65 9.67 -3.3 9.34 -5 9 C-4.67 7.68 -4.34 6.36 -4 5 C-2.68 5 -1.36 5 0 5 C0 3.35 0 1.7 0 0 Z " fill="#030431" transform="translate(163,30)"/>
<path d="M0 0 C1.65 0.33 3.3 0.66 5 1 C5 11.56 5 22.12 5 33 C2.525 33.495 2.525 33.495 0 34 C-1.44316961 28.84582282 -2.33993567 24.20775923 -1 19 C-0.93322049 17.57041764 -0.91465796 16.13799018 -0.9375 14.70703125 C-0.94523438 13.91232422 -0.95296875 13.11761719 -0.9609375 12.29882812 C-0.97382813 11.47833984 -0.98671875 10.65785156 -1 9.8125 C-1.04559415 6.86939735 -1.0472507 3.9443094 -1 1 C-0.67 0.67 -0.34 0.34 0 0 Z " fill="#16173C" transform="translate(178,23)"/>
<path d="M0 0 C0.33 0 0.66 0 1 0 C1.33 5.28 1.66 10.56 2 16 C5.63 17.65 9.26 19.3 13 21 C12.67 22.32 12.34 23.64 12 25 C11.34 24.67 10.68 24.34 10 24 C10 23.34 10 22.68 10 22 C9.175 21.896875 8.35 21.79375 7.5 21.6875 C3.40710988 20.88353944 -0.12540225 19.53647842 -4 18 C-1.69717067 19.53521956 0.17862235 20.58357909 2.6875 21.625 C3.780625 22.07875 4.87375 22.5325 6 23 C6 23.66 6 24.32 6 25 C4.68 25.33 3.36 25.66 2 26 C1.67 27.32 1.34 28.64 1 30 C0.34 30 -0.32 30 -1 30 C-1 27.36 -1 24.72 -1 22 C-2.98 21.34 -4.96 20.68 -7 20 C-6.34 18.02 -5.68 16.04 -5 14 C-3.68 14.33 -2.36 14.66 -1 15 C-1.020625 13.824375 -1.04125 12.64875 -1.0625 11.4375 C-1.06947261 7.52586533 -0.64250343 3.85502056 0 0 Z " fill="#2D566A" transform="translate(23,28)"/>
<path d="M0 0 C1.65 0 3.3 0 5 0 C5 7.26 5 14.52 5 22 C3.35 21.67 1.7 21.34 0 21 C0 14.07 0 7.14 0 0 Z " fill="#0E0E33" transform="translate(132,35)"/>
<path d="M0 0 C6.73144271 2.05366049 12.93453053 4.74396731 19.27734375 7.79296875 C21.80836028 9.13509547 21.80836028 9.13509547 24 9 C24.33 8.01 24.66 7.02 25 6 C24.34 5.67 23.68 5.34 23 5 C24.32 5.33 25.64 5.66 27 6 C26.625 8.4375 26.625 8.4375 26 11 C25.01 11.495 25.01 11.495 24 12 C22.68748758 11.42005265 21.40016923 10.78300548 20.125 10.125 C11.95861676 6.62166991 2.74960563 7.14773715 -6 7 C-5.67 6.34 -5.34 5.68 -5 5 C-2.93359375 4.5859375 -2.93359375 4.5859375 -0.4375 4.375 C0.38878906 4.30023438 1.21507812 4.22546875 2.06640625 4.1484375 C3.02353516 4.07496094 3.02353516 4.07496094 4 4 C2.68 3.34 1.36 2.68 0 2 C0 1.34 0 0.68 0 0 Z " fill="#1A4055" transform="translate(29,52)"/>
<path d="M0 0 C1.65 0 3.3 0 5 0 C5 1.65 5 3.3 5 5 C6.98 5 8.96 5 11 5 C10.67 6.65 10.34 8.3 10 10 C9.01 10.33 8.02 10.66 7 11 C6.01 10.01 5.02 9.02 4 8 C5.98 8 7.96 8 10 8 C10 7.34 10 6.68 10 6 C8.700625 6.12375 7.40125 6.2475 6.0625 6.375 C5.33160156 6.44460937 4.60070312 6.51421875 3.84765625 6.5859375 C3.23792969 6.72257812 2.62820312 6.85921875 2 7 C1.67 7.66 1.34 8.32 1 9 C-0.98 9 -2.96 9 -5 9 C-4.67 7.68 -4.34 6.36 -4 5 C-2.68 5 -1.36 5 0 5 C0 3.35 0 1.7 0 0 Z " fill="#100F35" transform="translate(163,30)"/>
<path d="M0 0 C1.65 0.33 3.3 0.66 5 1 C5.25 8.625 5.25 8.625 3 12 C2.92094936 14.33199388 2.91201231 16.66832622 3 19 C2.01 19 1.02 19 0 19 C-0.19476139 16.39619004 -0.38108614 13.79224467 -0.5625 11.1875 C-0.61857422 10.44951172 -0.67464844 9.71152344 -0.73242188 8.95117188 C-0.95769724 5.63211484 -1.06255812 3.18767436 0 0 Z " fill="#070831" transform="translate(178,23)"/>
<path d="M0 0 C3.31248187 -0.02888146 6.62493167 -0.04675799 9.9375 -0.0625 C10.88302734 -0.07087891 11.82855469 -0.07925781 12.80273438 -0.08789062 C14.15141602 -0.09272461 14.15141602 -0.09272461 15.52734375 -0.09765625 C16.77632446 -0.10551147 16.77632446 -0.10551147 18.05053711 -0.11352539 C20 0 20 0 21 1 C21.08700342 2.63472882 21.10701063 4.27314055 21.09765625 5.91015625 C21.09443359 6.89951172 21.09121094 7.88886719 21.08789062 8.90820312 C21.07951172 9.94912109 21.07113281 10.99003906 21.0625 12.0625 C21.05798828 13.10728516 21.05347656 14.15207031 21.04882812 15.22851562 C21.03699913 17.8190666 21.02051689 20.40950559 21 23 C20.67 23 20.34 23 20 23 C19.67 16.07 19.34 9.14 19 2 C12.73 2 6.46 2 0 2 C0 1.34 0 0.68 0 0 Z " fill="#163850" transform="translate(27,23)"/>
<path d="M0 0 C0.33 0 0.66 0 1 0 C1 5.61 1 11.22 1 17 C-0.32 17.33 -1.64 17.66 -3 18 C-4.3479743 18.63654342 -5.68596724 19.29605388 -7 20 C-7.99 19.34 -8.98 18.68 -10 18 C-10.1875 15.375 -10.1875 15.375 -10 13 C-5.545 12.505 -5.545 12.505 -1 12 C-0.67 8.04 -0.34 4.08 0 0 Z " fill="#194E74" transform="translate(46,34)"/>
<path d="M0 0 C2 2 2 2 2 5 C2.66 5 3.32 5 4 5 C4 4.01 4 3.02 4 2 C4.66 2 5.32 2 6 2 C6.33 2.99 6.66 3.98 7 5 C7.66 4.67 8.32 4.34 9 4 C8.62492618 6.71928517 8.15781339 7.84218661 6.1875 9.8125 C4 11 4 11 1.75 10.6875 C1.1725 10.460625 0.595 10.23375 0 10 C0 9.01 0 8.02 0 7 C-0.66 7 -1.32 7 -2 7 C-1.125 2.25 -1.125 2.25 0 0 Z " fill="#2C4A5B" transform="translate(30,30)"/>
<path d="M0 0 C0.99 0.66 1.98 1.32 3 2 C3.66 2 4.32 2 5 2 C5.33 3.65 5.66 5.3 6 7 C5.01 7.66 4.02 8.32 3 9 C2.67 8.67 2.34 8.34 2 8 C-0.18292774 7.76518307 -2.37203174 7.58636677 -4.5625 7.4375 C-5.76003906 7.35371094 -6.95757812 7.26992188 -8.19140625 7.18359375 C-9.11824219 7.12300781 -10.04507813 7.06242187 -11 7 C-11 6.67 -11 6.34 -11 6 C-4.565 5.505 -4.565 5.505 2 5 C0.35 4.67 -1.3 4.34 -3 4 C-3 3.34 -3 2.68 -3 2 C-2.01 2 -1.02 2 0 2 C0 1.34 0 0.68 0 0 Z " fill="#0C0D39" transform="translate(87,42)"/>
<path d="M0 0 C0.99 0 1.98 0 3 0 C3.08107583 1.93681161 3.13922475 3.8745934 3.1875 5.8125 C3.23970703 7.43091797 3.23970703 7.43091797 3.29296875 9.08203125 C3 12 3 12 0 15 C0 10.05 0 5.1 0 0 Z " fill="#010133" transform="translate(133,36)"/>
<path d="M0 0 C1.32 0.33 2.64 0.66 4 1 C4.33 2.65 4.66 4.3 5 6 C3.35 6.33 1.7 6.66 0 7 C-0.66 5.68 -1.32 4.36 -2 3 C-1.34 2.01 -0.68 1.02 0 0 Z " fill="#09082A" transform="translate(133,25)"/>
<path d="M0 0 C5.94 2.475 5.94 2.475 12 5 C11.67 5.99 11.34 6.98 11 8 C7.7 7.01 4.4 6.02 1 5 C1.33 4.34 1.66 3.68 2 3 C1.34 2.67 0.68 2.34 0 2 C0 1.34 0 0.68 0 0 Z " fill="#0D3357" transform="translate(49,48)"/>
<path d="M0 0 C0.10634766 0.92039063 0.10634766 0.92039063 0.21484375 1.859375 C0.8150121 4.18068448 0.8150121 4.18068448 3.06640625 5.265625 C3.89011719 5.59046875 4.71382812 5.9153125 5.5625 6.25 C6.38878906 6.58515625 7.21507812 6.9203125 8.06640625 7.265625 C9.02353516 7.62914062 9.02353516 7.62914062 10 8 C8.68 8.99 7.36 9.98 6 11 C6 10.34 6 9.68 6 9 C5.05125 8.896875 4.1025 8.79375 3.125 8.6875 C0 8 0 8 -2 5 C-1.48275862 1.48275862 -1.48275862 1.48275862 0 0 Z " fill="#020233" transform="translate(145,38)"/>
<path d="M0 0 C0.66 0.33 1.32 0.66 2 1 C1.484375 1.53625 0.96875 2.0725 0.4375 2.625 C-1.32605545 5.00496499 -1.32605545 5.00496499 -0.6875 8.25 C-0.460625 9.1575 -0.23375 10.065 0 11 C2.97 11.495 2.97 11.495 6 12 C3.2050298 13.13869156 2.17318422 13.06846818 -0.6875 11.9375 C-3 10 -3 10 -4.0625 7.0625 C-4 4 -4 4 -2.0625 1.625 C-1.381875 1.08875 -0.70125 0.5525 0 0 Z " fill="#0A0B2D" transform="translate(145,35)"/>
<path d="M0 0 C2 3.75 2 3.75 2 6 C2.928125 5.690625 3.85625 5.38125 4.8125 5.0625 C6.875 4.375 8.9375 3.6875 11 3 C10.67 4.65 10.34 6.3 10 8 C3.59181818 8.36272727 3.59181818 8.36272727 1.0625 6.8125 C-0.32851983 4.43958382 -0.21917317 2.70313576 0 0 Z " fill="#090A29" transform="translate(163,49)"/>
<path d="M0 0 C1.33333333 0 2.66666667 0 4 0 C4.33 3.3 4.66 6.6 5 10 C3.35 9.67 1.7 9.34 0 9 C0 6.03 0 3.06 0 0 Z " fill="#060627" transform="translate(177,47)"/>
<path d="M0 0 C0.66 0 1.32 0 2 0 C2 1.65 2 3.3 2 5 C0.72125 5.061875 -0.5575 5.12375 -1.875 5.1875 C-2.59429687 5.22230469 -3.31359375 5.25710937 -4.0546875 5.29296875 C-4.69664063 5.19628906 -5.33859375 5.09960938 -6 5 C-6.66 4.01 -7.32 3.02 -8 2 C-4.71303767 1.20046862 -3.28976808 0.90341064 0 2 C0 1.34 0 0.68 0 0 Z " fill="#07072B" transform="translate(126,52)"/>
<path d="M0 0 C0.66 0 1.32 0 2 0 C2.33 0.99 2.66 1.98 3 3 C3.66 2.67 4.32 2.34 5 2 C4.42655063 4.86724686 4.1385485 5.8614515 2 8 C0.68 8 -0.64 8 -2 8 C-2 7.34 -2 6.68 -2 6 C-1.34 6 -0.68 6 0 6 C0 4.02 0 2.04 0 0 Z " fill="#153858" transform="translate(34,32)"/>
<path d="M0 0 C1.32 0.33 2.64 0.66 4 1 C3.625 3.4375 3.625 3.4375 3 6 C1 7 1 7 -0.9453125 6.44140625 C-1.66460937 6.15136719 -2.38390625 5.86132812 -3.125 5.5625 C-3.84945312 5.27503906 -4.57390625 4.98757812 -5.3203125 4.69140625 C-5.87460937 4.46324219 -6.42890625 4.23507813 -7 4 C-6.34 3.34 -5.68 2.68 -5 2 C-3.02 2.66 -1.04 3.32 1 4 C1.33 3.01 1.66 2.02 2 1 C1.34 0.67 0.68 0.34 0 0 Z " fill="#0F304C" transform="translate(52,57)"/>
<path d="M0 0 C1.4589426 0.47730838 2.91713496 0.95691042 4.375 1.4375 C5.18710937 1.70433594 5.99921875 1.97117188 6.8359375 2.24609375 C9 3 9 3 11 4 C11 4.66 11 5.32 11 6 C5.45040214 6.36997319 5.45040214 6.36997319 3.25 4.5625 C2.8375 4.046875 2.425 3.53125 2 3 C1.34 2.67 0.68 2.34 0 2 C0 1.34 0 0.68 0 0 Z " fill="#194761" transform="translate(29,52)"/>
<path d="M0 0 C0.99 0.33 1.98 0.66 3 1 C3.33 1.99 3.66 2.98 4 4 C2.125 5.0625 2.125 5.0625 0 6 C-0.66 5.67 -1.32 5.34 -2 5 C-1.125 1.125 -1.125 1.125 0 0 Z " fill="#0D0C32" transform="translate(143,50)"/>
<path d="M0 0 C1.65 0 3.3 0 5 0 C6.0625 1.8125 6.0625 1.8125 7 4 C6.67 4.99 6.34 5.98 6 7 C5.67 5.68 5.34 4.36 5 3 C3.02 3.33 1.04 3.66 -1 4 C-0.67 2.68 -0.34 1.36 0 0 Z " fill="#080827" transform="translate(80,25)"/>
<path d="M0 0 C-1.32 0.33 -2.64 0.66 -4 1 C-3.67 1.99 -3.34 2.98 -3 4 C-4.98 4.99 -4.98 4.99 -7 6 C-7.66 4.35 -8.32 2.7 -9 1 C-5.92677456 0.08941469 -3.19902639 -0.08886184 0 0 Z " fill="#1B496A" transform="translate(45,46)"/>
<path d="M0 0 C1.98 0.66 3.96 1.32 6 2 C6 2.99 6 3.98 6 5 C4.02 5 2.04 5 0 5 C0 3.35 0 1.7 0 0 Z " fill="#020428" transform="translate(92,52)"/>
<path d="" fill="#FFFFFF" transform="translate(0,0)"/>
<path d="" fill="#FFFFFF" transform="translate(0,0)"/>
<path d="" fill="#FFFFFF" transform="translate(0,0)"/>
<path d="" fill="#FFFFFF" transform="translate(0,0)"/>
<path d="" fill="#FFFFFF" transform="translate(0,0)"/>
<path d="" fill="#FFFFFF" transform="translate(0,0)"/>
<path d="" fill="#FFFFFF" transform="translate(0,0)"/>
<path d="" fill="#FFFFFF" transform="translate(0,0)"/>
<path d="" fill="#FFFFFF" transform="translate(0,0)"/>
<path d="" fill="#FFFFFF" transform="translate(0,0)"/>
<path d="" fill="#FFFFFF" transform="translate(0,0)"/>
<path d="" fill="#FFFFFF" transform="translate(0,0)"/>
<path d="" fill="#FFFFFF" transform="translate(0,0)"/>
<path d="" fill="#FFFFFF" transform="translate(0,0)"/>
<path d="" fill="#FFFFFF" transform="translate(0,0)"/>
<path d="" fill="#FFFFFF" transform="translate(0,0)"/>
<path d="" fill="#FFFFFF" transform="translate(0,0)"/>
<path d="" fill="#FFFFFF" transform="translate(0,0)"/>
<path d="" fill="#FFFFFF" transform="translate(0,0)"/>
<path d="" fill="#FFFFFF" transform="translate(0,0)"/>
<path d="" fill="#FFFFFF" transform="translate(0,0)"/>
<path d="" fill="#FFFFFF" transform="translate(0,0)"/>
<path d="" fill="#FFFFFF" transform="translate(0,0)"/>
<path d="" fill="#FFFFFF" transform="translate(0,0)"/>
<path d="" fill="#FFFFFF" transform="translate(0,0)"/>
<path d="" fill="#FFFFFF" transform="translate(0,0)"/>
<path d="" fill="#FFFFFF" transform="translate(0,0)"/>
<path d="" fill="#FFFFFF" transform="translate(0,0)"/>
<path d="" fill="#FFFFFF" transform="translate(0,0)"/>
<path d="" fill="#FFFFFF" transform="translate(0,0)"/>
<path d="" fill="#FFFFFF" transform="translate(0,0)"/>
<path d="" fill="#FFFFFF" transform="translate(0,0)"/>
<path d="" fill="#FFFFFF" transform="translate(0,0)"/>
<path d="" fill="#FFFFFF" transform="translate(0,0)"/>
<path d="" fill="#FFFFFF" transform="translate(0,0)"/>
<path d="" fill="#FFFFFF" transform="translate(0,0)"/>
<path d="" fill="#FFFFFF" transform="translate(0,0)"/>
<path d="" fill="#FFFFFF" transform="translate(0,0)"/>
<path d="" fill="#FFFFFF" transform="translate(0,0)"/>
<path d="" fill="#FFFFFF" transform="translate(0,0)"/>
<path d="" fill="#FFFFFF" transform="translate(0,0)"/>
<path d="" fill="#FFFFFF" transform="translate(0,0)"/>
<path d="" fill="#FFFFFF" transform="translate(0,0)"/>
<path d="" fill="#FFFFFF" transform="translate(0,0)"/>
<path d="" fill="#FFFFFF" transform="translate(0,0)"/>
<path d="" fill="#FFFFFF" transform="translate(0,0)"/>
<path d="" fill="#FFFFFF" transform="translate(0,0)"/>
<path d="" fill="#FFFFFF" transform="translate(0,0)"/>
<path d="" fill="#FFFFFF" transform="translate(0,0)"/>
<path d="" fill="#FFFFFF" transform="translate(0,0)"/>
<path d="" fill="#FFFFFF" transform="translate(0,0)"/>
<path d="" fill="#FFFFFF" transform="translate(0,0)"/>
<path d="" fill="#FFFFFF" transform="translate(0,0)"/>
<path d="" fill="#FFFFFF" transform="translate(0,0)"/>
<path d="" fill="#FFFFFF" transform="translate(0,0)"/>
<path d="" fill="#FFFFFF" transform="translate(0,0)"/>
<path d="" fill="#FFFFFF" transform="translate(0,0)"/>
<path d="" fill="#FFFFFF" transform="translate(0,0)"/>
<path d="" fill="#FFFFFF" transform="translate(0,0)"/>
<path d="" fill="#FFFFFF" transform="translate(0,0)"/>
<path d="" fill="#FFFFFF" transform="translate(0,0)"/>
<path d="" fill="#FFFFFF" transform="translate(0,0)"/>
<path d="" fill="#FFFFFF" transform="translate(0,0)"/>
<path d="" fill="#FFFFFF" transform="translate(0,0)"/>
</svg>
