<?xml version="1.0" encoding="UTF-8"?>
<svg version="1.1" xmlns="http://www.w3.org/2000/svg" width="127" height="127">
<path d="M0 0 C0.99741211 0.00572021 1.99482422 0.01144043 3.02246094 0.01733398 C21.3782168 0.45571124 36.13216204 8.27776726 48.8125 21.5 C58.94567592 33.86524001 64.42068394 47.67627707 64.3125 63.6875 C64.30677979 64.68491211 64.30105957 65.68232422 64.29516602 66.70996094 C63.85678876 85.0657168 56.03473274 99.81966204 42.8125 112.5 C30.44725999 122.63317592 16.63622293 128.10818394 0.625 128 C-0.37241211 127.99427979 -1.36982422 127.98855957 -2.39746094 127.98266602 C-20.7532168 127.54428876 -35.50716204 119.72223274 -48.1875 106.5 C-58.32067592 94.13475999 -63.79568394 80.32372293 -63.6875 64.3125 C-63.68177979 63.31508789 -63.67605957 62.31767578 -63.67016602 61.29003906 C-63.23178876 42.9342832 -55.40973274 28.18033796 -42.1875 15.5 C-29.82225999 5.36682408 -16.01122293 -0.10818394 0 0 Z " fill="#0584BD" transform="translate(63.1875,-0.5)"/>
<path d="M0 0 C3.91897047 -0.68156008 5.96191835 -0.63092483 9.41015625 1.46484375 C23.01450109 12.08338184 33.04681925 25.76271377 36 43 C37.96771571 61.34663792 35.48540275 78.12170383 24 93 C19.5373348 98.49071372 15.20520812 103.49962619 9 107 C8.67 106.34 8.34 105.68 8 105 C7.01 104.67 6.02 104.34 5 104 C5 103.34 5 102.68 5 102 C4.2575 101.773125 3.515 101.54625 2.75 101.3125 C-0.55765809 99.733845 -1.94858409 98.00385901 -4 95 C-5.20643566 91.38069302 -5.32268559 88.80768995 -5 85 C-2.88040252 80.98790477 -1.22504257 78.64898244 3 77 C5.4375 76.734375 5.4375 76.734375 8 76.75 C8.845625 76.74484375 9.69125 76.7396875 10.5625 76.734375 C13 77 13 77 17 79 C17 68.44 17 57.88 17 47 C11.13716713 48.21916128 11.13716713 48.21916128 5.27734375 49.45263672 C-2.75940763 51.0911814 -10.85914053 52.05133962 -19 53 C-19.00142502 53.58802399 -19.00285004 54.17604797 -19.00431824 54.78189087 C-19.0240387 60.91447306 -19.07836249 67.04606305 -19.15258789 73.17822266 C-19.17575309 75.46525956 -19.19016011 77.75240292 -19.19555664 80.03955078 C-19.20485658 83.3317284 -19.24587274 86.62223499 -19.29296875 89.9140625 C-19.28706978 91.44252304 -19.28706978 91.44252304 -19.28105164 93.00186157 C-19.37518669 97.60504397 -19.44546845 100.94992518 -22.4309082 104.60693359 C-26.57673291 108.46870056 -29.14440399 109.47244094 -34.96875 109.3203125 C-38.35429158 108.78643864 -40.44180448 107.19273902 -43 105 C-45.73053943 100.58985041 -45.80099226 96.03594145 -45 91 C-43.31712073 87.87822767 -41.2172593 85.60862965 -38 84 C-36.37834248 83.87851695 -34.75115673 83.82456348 -33.125 83.8125 C-32.26132812 83.79832031 -31.39765625 83.78414063 -30.5078125 83.76953125 C-27.85445943 84.01337522 -26.32210603 84.75836529 -24 86 C-24.00785522 84.38774536 -24.00785522 84.38774536 -24.01586914 82.74291992 C-24.03396401 78.75660026 -24.04544846 74.77028424 -24.05493164 70.78393555 C-24.05996158 69.0583434 -24.06678626 67.33275552 -24.07543945 65.60717773 C-24.08756361 63.1274307 -24.09324169 60.64774 -24.09765625 58.16796875 C-24.10539818 57.01001045 -24.10539818 57.01001045 -24.11329651 55.82865906 C-24.11363318 52.6169772 -24.02326578 50.06979734 -23 47 C-20.78298853 45.41034429 -18.42137527 44.27672514 -16 43 C-16.7425 41.6696875 -16.7425 41.6696875 -17.5 40.3125 C-18.97133507 37.06330172 -19.6394937 35.47153723 -19 32 C-17.375 29.6875 -17.375 29.6875 -15 28 C-11.03414842 27.50426855 -8.40424088 27.90508254 -5 30 C-4.8659375 29.18402344 -4.731875 28.36804688 -4.59375 27.52734375 C-3.79810306 22.80057276 -2.95257423 18.08302479 -2.10546875 13.36523438 C-1.31459017 8.91953813 -0.61300825 4.47378134 0 0 Z " fill="#0783BC" transform="translate(91,9)"/>
<path d="M0 0 C0.88751953 0.00789551 1.77503906 0.01579102 2.68945312 0.02392578 C3.69395508 0.03915283 3.69395508 0.03915283 4.71875 0.0546875 C4.84571594 7.06539535 4.93317112 14.07580582 4.9934082 21.08740234 C5.01852409 23.47162964 5.05262324 25.85578015 5.09594727 28.23974609 C5.15672447 31.67044029 5.18498993 35.10011494 5.20703125 38.53125 C5.23283768 39.59397125 5.2586441 40.6566925 5.28523254 41.75161743 C5.28835693 50.02958387 5.28835693 50.02958387 2.37573242 53.64990234 C-2.23412808 57.82220097 -4.81092334 58.50759904 -10.83984375 58.3671875 C-14.38114018 57.91390156 -15.95881101 56.72901118 -18.28125 54.0546875 C-21.126358 49.63986474 -21.93418024 46.27812942 -21.28125 41.0546875 C-19.16165252 37.04259227 -17.50629257 34.70366994 -13.28125 33.0546875 C-10.84375 32.7890625 -10.84375 32.7890625 -8.28125 32.8046875 C-7.435625 32.79953125 -6.59 32.794375 -5.71875 32.7890625 C-3.28125 33.0546875 -3.28125 33.0546875 0.71875 35.0546875 C0.71875 24.4946875 0.71875 13.9346875 0.71875 3.0546875 C-5.14408287 4.27384878 -5.14408287 4.27384878 -11.00390625 5.50732422 C-19.04065763 7.1458689 -27.14039053 8.10602712 -35.28125 9.0546875 C-35.28267502 9.64271149 -35.28410004 10.23073547 -35.28556824 10.83657837 C-35.3052887 16.96916056 -35.35961249 23.10075055 -35.43383789 29.23291016 C-35.45700309 31.51994706 -35.47141011 33.80709042 -35.47680664 36.09423828 C-35.48610658 39.3864159 -35.52712274 42.67692249 -35.57421875 45.96875 C-35.56831978 47.49721054 -35.56831978 47.49721054 -35.56230164 49.05654907 C-35.65643669 53.65973147 -35.72671845 57.00461268 -38.7121582 60.66162109 C-42.85798291 64.52338806 -45.42565399 65.52712844 -51.25 65.375 C-54.63554158 64.84112614 -56.72305448 63.24742652 -59.28125 61.0546875 C-62.01178943 56.64453791 -62.08224226 52.09062895 -61.28125 47.0546875 C-59.59837073 43.93291517 -57.4985093 41.66331715 -54.28125 40.0546875 C-52.65959248 39.93320445 -51.03240673 39.87925098 -49.40625 39.8671875 C-48.54257812 39.85300781 -47.67890625 39.83882812 -46.7890625 39.82421875 C-44.28125 40.0546875 -44.28125 40.0546875 -40.28125 42.0546875 C-40.28125 30.1746875 -40.28125 18.2946875 -40.28125 6.0546875 C-32.41694214 3.8077424 -32.41694214 3.8077424 -29.01171875 3.4921875 C-27.90376953 3.38173096 -27.90376953 3.38173096 -26.7734375 3.26904297 C-26.01289062 3.19830566 -25.25234375 3.12756836 -24.46875 3.0546875 C-18.78142365 2.48434177 -13.28832046 1.72252575 -7.70776367 0.4609375 C-5.09159682 0.02293552 -2.65063051 -0.03071923 0 0 Z " fill="#00060B" transform="translate(107.28125,52.9453125)"/>
<path d="M0 0 C0.99 0 1.98 0 3 0 C5.11760998 3.17641497 5.20400665 4.05011768 5.3125 7.6875 C5.8164579 13.19903953 7.21370939 16.91674542 11 21 C13.75876432 23.12118323 16.5988194 25.08761031 19.4609375 27.06640625 C23.40574971 30.07053247 25.54019872 32.91013537 26.29296875 37.96875 C26.4804326 42.61071207 25.46006639 46.61980084 24 51 C23.01 51 22.02 51 21 51 C20.93941406 49.96359375 20.87882812 48.9271875 20.81640625 47.859375 C20.73196629 46.48957127 20.64732003 45.11978025 20.5625 43.75 C20.52318359 43.06808594 20.48386719 42.38617188 20.44335938 41.68359375 C20.27799408 36.72031448 20.27799408 36.72031448 19 32 C17.67218834 31.32240247 16.33745446 30.65835992 15 30 C13.23300929 28.81665167 11.48358985 27.60676121 9.75 26.375 C8.41195312 25.42753906 8.41195312 25.42753906 7.046875 24.4609375 C6.37140625 23.97882812 5.6959375 23.49671875 5 23 C5.01047363 24.19488037 5.02094727 25.38976074 5.03173828 26.62084961 C5.06815882 31.08810384 5.0909802 35.55534515 5.10986328 40.02270508 C5.11987087 41.94981092 5.1334811 43.87690178 5.15087891 45.80395508 C5.17535921 48.58678913 5.18653578 51.36942101 5.1953125 54.15234375 C5.20563507 55.00271713 5.21595764 55.85309052 5.22659302 56.72923279 C5.22787013 63.66317073 5.0547882 70.4710299 0.5625 76 C-3.15367365 78.90042821 -6.25289779 79.34549671 -10.93359375 79.28515625 C-14.35340256 78.81323556 -16.4265947 77.20577598 -19 75 C-21.74637397 70.58887195 -21.67014565 66.04243738 -21 61 C-18.86687723 57.34321811 -16.85591156 55.60428437 -13 54 C-10.78125 53.734375 -10.78125 53.734375 -8.5 53.75 C-7.7471875 53.74484375 -6.994375 53.7396875 -6.21875 53.734375 C-4 54 -4 54 0 56 C0 37.52 0 19.04 0 0 Z " fill="#000205" transform="translate(32,9)"/>
<path d="M0 0 C0.91007812 0.00902344 1.82015625 0.01804687 2.7578125 0.02734375 C3.45648438 0.03894531 4.15515625 0.05054687 4.875 0.0625 C5.205 1.0525 5.535 2.0425 5.875 3.0625 C7.855 2.7325 9.835 2.4025 11.875 2.0625 C11.92918326 4.14554538 11.96787551 6.22899768 12 8.3125 C12.02320312 9.47265625 12.04640625 10.6328125 12.0703125 11.828125 C11.8853949 14.89036046 11.48323023 16.50452751 9.875 19.0625 C9.215 19.0625 8.555 19.0625 7.875 19.0625 C7.875 20.3825 7.875 21.7025 7.875 23.0625 C4.15749152 25.54083899 0.18847919 25.74270249 -4.125 25.0625 C-8.18389277 22.95788893 -10.4379364 21.29160966 -12.125 17.0625 C-12.76595668 12.9738711 -13.08074033 8.83541608 -11.07421875 5.11328125 C-7.54247316 0.81059414 -5.36950055 -0.06883975 0 0 Z " fill="#010205" transform="translate(58.125,92.9375)"/>
<path d="M0 0 C0.99 0 1.98 0 3 0 C5.11760998 3.17641497 5.20400665 4.05011768 5.3125 7.6875 C5.8164579 13.19903953 7.21370939 16.91674542 11 21 C13.75876432 23.12118323 16.5988194 25.08761031 19.4609375 27.06640625 C23.40574971 30.07053247 25.54019872 32.91013537 26.29296875 37.96875 C26.4804326 42.61071207 25.46006639 46.61980084 24 51 C23.01 51 22.02 51 21 51 C20.93941406 49.96359375 20.87882812 48.9271875 20.81640625 47.859375 C20.73196629 46.48957127 20.64732003 45.11978025 20.5625 43.75 C20.52318359 43.06808594 20.48386719 42.38617188 20.44335938 41.68359375 C20.27799408 36.72031448 20.27799408 36.72031448 19 32 C17.68 31.34 16.36 30.68 15 30 C11.7 27.69 8.4 25.38 5 23 C5 36.53 5 50.06 5 64 C4.67 64 4.34 64 4 64 C3.67 52.78 3.34 41.56 3 30 C2.67 38.91 2.34 47.82 2 57 C1.01 56.67 0.02 56.34 -1 56 C-0.67 37.52 -0.34 19.04 0 0 Z " fill="#011624" transform="translate(32,9)"/>
<path d="M0 0 C0.66 0 1.32 0 2 0 C1.93039063 0.85271484 1.93039063 0.85271484 1.859375 1.72265625 C1.57574622 7.7902863 2.53606658 11.00786066 6 16 C6.66 16.66 7.32 17.32 8 18 C8.30078125 20.05859375 8.30078125 20.05859375 8.3125 22.4375 C8.32925781 23.21996094 8.34601563 24.00242187 8.36328125 24.80859375 C7.92353251 27.46127163 7.04371546 28.322967 5 30 C5.06960937 28.87851562 5.06960937 28.87851562 5.140625 27.734375 C5.58471109 21.65744122 5.58471109 21.65744122 3 16.4375 C2.34 15.963125 1.68 15.48875 1 15 C1 14.34 1 13.68 1 13 C0.34 13 -0.32 13 -1 13 C-1.11730469 14.14984375 -1.23460938 15.2996875 -1.35546875 16.484375 C-1.91068524 20.89888087 -2.98676032 25.0108567 -4.3125 29.25 C-4.51294922 29.94351563 -4.71339844 30.63703125 -4.91992188 31.3515625 C-6.20825704 35.51571703 -7.51276254 38.32217936 -11 41 C-14 41.5625 -14 41.5625 -17 41 C-19.62846098 38.57904909 -20.81388233 36.95385308 -21.5 33.4375 C-20.81761445 30.11087043 -19.75740782 28.95921082 -17 27 C-13.03414842 26.50426855 -10.40424088 26.90508254 -7 29 C-6.86408447 28.12585449 -6.72816895 27.25170898 -6.58813477 26.35107422 C-6.05342735 23.30441835 -5.37909262 20.37188267 -4.58984375 17.3828125 C-4.32236328 16.36445313 -4.05488281 15.34609375 -3.77929688 14.296875 C-3.50150391 13.25015625 -3.22371094 12.2034375 -2.9375 11.125 C-2.65583984 10.05507813 -2.37417969 8.98515625 -2.08398438 7.8828125 C-1.39172274 5.25456493 -0.69699076 2.62699665 0 0 Z " fill="#010A13" transform="translate(93,10)"/>
<path d="M0 0 C-3.23911775 3.89656244 -5.81552532 4.74611288 -10.75 5.625 C-11.92046875 5.84414063 -13.0909375 6.06328125 -14.296875 6.2890625 C-21.16689904 7.39681279 -28.09294545 8.16262208 -35 9 C-35.00213753 9.8853669 -35.00213753 9.8853669 -35.00431824 10.78862 C-35.02401917 16.93726959 -35.07830102 23.08492695 -35.15258789 29.2331543 C-35.17577142 31.52702717 -35.19016441 33.82100655 -35.19555664 36.11499023 C-35.2048432 39.41457516 -35.24582988 42.71248414 -35.29296875 46.01171875 C-35.2890361 47.03585373 -35.28510345 48.05998871 -35.28105164 49.11515808 C-35.44351894 57.06039656 -35.44351894 57.06039656 -38.54418945 60.18676758 C-39.75981567 61.08431763 -39.75981567 61.08431763 -41 62 C-41 61.01 -41 60.02 -41 59 C-40.34 59 -39.68 59 -39 59 C-37.95117609 55.43928688 -37.69613047 51.94472103 -37.4375 48.25 C-37.35371094 47.07953125 -37.26992187 45.9090625 -37.18359375 44.703125 C-37.12300781 43.81109375 -37.06242187 42.9190625 -37 42 C-39.97 42.495 -39.97 42.495 -43 43 C-42.67 42.34 -42.34 41.68 -42 41 C-41.34 41.33 -40.68 41.66 -40 42 C-40 30.12 -40 18.24 -40 6 C-32.13569214 3.7530549 -32.13569214 3.7530549 -28.73046875 3.4375 C-27.62191528 3.32704346 -27.62191528 3.32704346 -26.4909668 3.21435547 C-25.73082275 3.14361816 -24.97067871 3.07288086 -24.1875 3 C-18.3865412 2.41559487 -12.72683149 1.71309307 -7.04296875 0.3671875 C-4.66563237 -0.06009667 -2.41033479 -0.05889125 0 0 Z " fill="#000C1A" transform="translate(107,53)"/>
<path d="M0 0 C-2.38987014 2.38987014 -3.36418424 2.39278336 -6.6484375 2.81640625 C-7.57140625 2.94080078 -8.494375 3.06519531 -9.4453125 3.19335938 C-10.89550781 3.37608398 -10.89550781 3.37608398 -12.375 3.5625 C-14.27888276 3.81200076 -16.18253891 4.06323833 -18.0859375 4.31640625 C-19.3551001 4.47798218 -19.3551001 4.47798218 -20.64990234 4.64282227 C-23.29503055 5.00716743 -23.29503055 5.00716743 -27 6 C-27 20.85 -27 35.7 -27 51 C-27.99 51.495 -27.99 51.495 -29 52 C-29.0252689 45.18238106 -29.04283244 38.36477411 -29.05493164 31.54711914 C-29.05997333 29.22582549 -29.06680651 26.90453503 -29.07543945 24.58325195 C-29.08751225 21.25471205 -29.09322979 17.92621398 -29.09765625 14.59765625 C-29.10281754 13.55287613 -29.10797882 12.50809601 -29.11329651 11.43165588 C-29.11337204 10.47073532 -29.11344757 9.50981476 -29.11352539 8.51977539 C-29.115746 7.66928116 -29.11796661 6.81878693 -29.12025452 5.94252014 C-29 4 -29 4 -28 3 C-24.84067402 2.32581296 -21.63237819 1.91073143 -18.4375 1.4375 C-17.55513672 1.29892578 -16.67277344 1.16035156 -15.76367188 1.01757812 C-10.44372923 0.21939013 -5.37838909 -0.14434416 0 0 Z " fill="#156D95" transform="translate(100,58)"/>
<path d="M0 0 C0.66 0 1.32 0 2 0 C1.93039063 0.85271484 1.93039063 0.85271484 1.859375 1.72265625 C1.57574622 7.7902863 2.53606658 11.00786066 6 16 C6.66 16.66 7.32 17.32 8 18 C8.30078125 20.05859375 8.30078125 20.05859375 8.3125 22.4375 C8.32925781 23.21996094 8.34601563 24.00242187 8.36328125 24.80859375 C7.92353251 27.46127163 7.04371546 28.322967 5 30 C5.06960937 28.87851562 5.06960937 28.87851562 5.140625 27.734375 C5.58471109 21.65744122 5.58471109 21.65744122 3 16.4375 C2.34 15.963125 1.68 15.48875 1 15 C1 14.34 1 13.68 1 13 C0.34 13 -0.32 13 -1 13 C-1.12375 14.155 -1.2475 15.31 -1.375 16.5 C-1.90278885 20.78350375 -2.88398037 24.83352672 -4 29 C-4.99 28.34 -5.98 27.68 -7 27 C-4.76819645 17.97082523 -2.50525868 8.95819769 0 0 Z " fill="#001C32" transform="translate(93,10)"/>
<path d="M0 0 C2.8605891 1.35937085 4.85927699 2.64520469 7 5 C6.01 5.495 6.01 5.495 5 6 C5 5.34 5 4.68 5 4 C4.01 4 3.02 4 2 4 C2.01047363 5.03817871 2.02094727 6.07635742 2.03173828 7.14599609 C2.0682608 11.04114255 2.09101642 14.93627424 2.10986328 18.83154297 C2.11984803 20.50930334 2.13344057 22.18704664 2.15087891 23.86474609 C2.24171508 32.83615457 2.26370832 41.24818279 0 50 C-0.66 50 -1.32 50 -2 50 C-1.84152588 48.71810791 -1.68305176 47.43621582 -1.51977539 46.11547852 C-0.96699274 41.12484788 -0.78220296 36.16982618 -0.68359375 31.15234375 C-0.6524221 29.80638878 -0.6524221 29.80638878 -0.62062073 28.4332428 C-0.55587774 25.60139712 -0.49659482 22.76946859 -0.4375 19.9375 C-0.39424298 18.00324706 -0.35062656 16.06900212 -0.30664062 14.13476562 C-0.20027497 9.42325933 -0.09880181 4.71167074 0 0 Z " fill="#177AA8" transform="translate(37,32)"/>
<path d="M0 0 C0.33 0 0.66 0 1 0 C1.20351778 7.11619981 1.3432188 14.23164468 1.43945312 21.35009766 C1.47958484 23.76932823 1.53410499 26.18836598 1.60351562 28.60693359 C1.70101697 32.09260683 1.74603114 35.57570789 1.78125 39.0625 C1.82254028 40.13677246 1.86383057 41.21104492 1.90637207 42.31787109 C1.90984342 48.18029486 1.32596926 51.35565904 -2.86132812 55.62109375 C-5.70920535 58.10694852 -8.60464983 60.30232492 -12 62 C-12.33 61.34 -12.66 60.68 -13 60 C-13.99 59.67 -14.98 59.34 -16 59 C-16 58.34 -16 57.68 -16 57 C-14.783125 56.9175 -13.56625 56.835 -12.3125 56.75 C-8.19003601 56.23925225 -5.98184754 54.98184754 -3 52 C-0.85762657 48.78643985 -0.7383475 47.86952936 -0.68115234 44.16137695 C-0.66128265 43.1805867 -0.64141296 42.19979645 -0.62094116 41.18928528 C-0.60938995 40.13295395 -0.59783875 39.07662262 -0.5859375 37.98828125 C-0.56657135 36.90491989 -0.5472052 35.82155853 -0.5272522 34.70536804 C-0.46741656 31.24115907 -0.4210547 27.77691695 -0.375 24.3125 C-0.33682393 21.96548021 -0.29777242 19.61847448 -0.2578125 17.27148438 C-0.16171176 11.51444766 -0.07667587 5.75732641 0 0 Z " fill="#096792" transform="translate(112,54)"/>
<path d="M0 0 C-3.33543081 4.09733125 -6.25379554 4.83002315 -11.375 5.75 C-13.30472656 6.11351562 -13.30472656 6.11351562 -15.2734375 6.484375 C-18.58287284 6.94228429 -21.66684223 7.10319374 -25 7 C-25 6.67 -25 6.34 -25 6 C-29.62 6 -34.24 6 -39 6 C-39 5.67 -39 5.34 -39 5 C-38.32533691 4.91959473 -37.65067383 4.83918945 -36.95556641 4.75634766 C-33.84487728 4.38327784 -30.73495081 4.00417337 -27.625 3.625 C-26.56410156 3.49867187 -25.50320312 3.37234375 -24.41015625 3.2421875 C-18.61392243 2.53099317 -12.92966414 1.66852198 -7.23193359 0.38037109 C-4.78537745 -0.03657645 -2.47720085 -0.06273466 0 0 Z " fill="#022238" transform="translate(107,53)"/>
<path d="M0 0 C0.66 0 1.32 0 2 0 C2.03738281 0.59167969 2.07476562 1.18335937 2.11328125 1.79296875 C2.50819378 6.53966249 2.88294879 10.19027074 6 14 C9.5319451 16.74706841 13.72781786 16.29609183 18 16 C20.84715499 15.56645435 20.84715499 15.56645435 23 15 C21.29964105 17.3657168 19.89338881 18.78586751 17.01171875 19.4765625 C11.29109256 19.85200947 8.04235706 18.23388565 3.62890625 14.703125 C1.2064851 12.17032974 0.09553607 10.15407568 -0.1953125 6.640625 C-0.17210937 5.85171875 -0.14890625 5.0628125 -0.125 4.25 C-0.10695313 3.45078125 -0.08890625 2.6515625 -0.0703125 1.828125 C-0.04710937 1.22484375 -0.02390625 0.6215625 0 0 Z " fill="#1776A3" transform="translate(9,71)"/>
<path d="M0 0 C0.33 0 0.66 0 1 0 C1 11.88 1 23.76 1 36 C-0.32 35.67 -1.64 35.34 -3 35 C-5.08234592 34.93256652 -7.16668557 34.91485528 -9.25 34.9375 C-10.32765625 34.94652344 -11.4053125 34.95554688 -12.515625 34.96484375 C-13.74539062 34.98224609 -13.74539062 34.98224609 -15 35 C-15 34.34 -15 33.68 -15 33 C-10.05 33 -5.1 33 0 33 C0 22.11 0 11.22 0 0 Z " fill="#1A7096" transform="translate(66,59)"/>
<path d="M0 0 C-0.928125 0.598125 -1.85625 1.19625 -2.8125 1.8125 C-6.21667621 4.10813501 -6.21667621 4.10813501 -9 7 C-9.39944772 9.11130663 -9.39944772 9.11130663 -9.25 11.375 C-9.22421875 12.16519531 -9.1984375 12.95539063 -9.171875 13.76953125 C-8.98143288 16.24095064 -8.61964403 18.59887937 -8 21 C-11.36553506 17.78079255 -12.17960751 15.85272583 -12.3125 11.1875 C-12.27603179 7.57714715 -12.11456666 6.19639999 -10.25 3 C-6.6938062 -0.16106116 -4.67631523 -1.67011258 0 0 Z " fill="#001021" transform="translate(23,64)"/>
<path d="M0 0 C2 2 2 2 2.25 5.6875 C2.1609339 9.74742993 1.28029578 13.15911265 0 17 C-0.99 17 -1.98 17 -3 17 C-3 12.38 -3 7.76 -3 3 C-2.67 3 -2.34 3 -2 3 C-2 6.63 -2 10.26 -2 14 C-1.34 14 -0.68 14 0 14 C0 9.38 0 4.76 0 0 Z " fill="#012A43" transform="translate(56,43)"/>
<path d="M0 0 C0.66 0 1.32 0 2 0 C1.67 3.96 1.34 7.92 1 12 C0.34 12 -0.32 12 -1 12 C-1.33 12.66 -1.66 13.32 -2 14 C-2.21192221 8.80790596 -1.5912689 4.873261 0 0 Z " fill="#001225" transform="translate(93,10)"/>
<path d="M0 0 C0.66 0.33 1.32 0.66 2 1 C1.175 1.94875 0.35 2.8975 -0.5 3.875 C-3.79079255 8.38941118 -3.48761453 12.61456845 -3 18 C-5.45993942 15.54006058 -5.34992473 14.64998115 -5.4375 11.25 C-5.387829 7.44188971 -4.97210811 5.30231215 -2.5 2.375 C-1.675 1.59125 -0.85 0.8075 0 0 Z " fill="#000C1A" transform="translate(51,94)"/>
<path d="M0 0 C0.33 0 0.66 0 1 0 C1.12117188 0.73605469 1.24234375 1.47210938 1.3671875 2.23046875 C1.53476563 3.20628906 1.70234375 4.18210937 1.875 5.1875 C2.03742188 6.15042969 2.19984375 7.11335938 2.3671875 8.10546875 C2.98039517 10.91032604 3.85666343 13.37224747 5 16 C1.73688133 13.23889959 0.15897725 11.64726451 -0.875 7.4375 C-0.9781812 4.60001708 -0.94963039 2.6378622 0 0 Z " fill="#16729C" transform="translate(95,11)"/>
<path d="M0 0 C0.33 0 0.66 0 1 0 C1.7230444 6.98942918 1.7230444 6.98942918 -0.3359375 9.8671875 C-1.81861028 11.32201666 -3.40423474 12.67019562 -5 14 C-5.99 13.67 -6.98 13.34 -8 13 C-6.824375 12.1028125 -6.824375 12.1028125 -5.625 11.1875 C-1.53090976 7.77575813 -0.68573118 5.14298383 0 0 Z " fill="#167BAB" transform="translate(112,97)"/>
<path d="M0 0 C0.66 0 1.32 0 2 0 C1.71812064 1.79323253 1.4241719 3.58457126 1.125 5.375 C0.96257812 6.37273438 0.80015625 7.37046875 0.6328125 8.3984375 C0 11 0 11 -2 13 C-2.33 11.68 -2.66 10.36 -3 9 C-2.34 9 -1.68 9 -1 9 C-0.67 6.03 -0.34 3.06 0 0 Z " fill="#17739E" transform="translate(88,22)"/>
<path d="M0 0 C-0.86625 0.37125 -0.86625 0.37125 -1.75 0.75 C-4.3002997 2.16683317 -6.01785701 3.87627537 -8 6 C-7.67 4.02 -7.34 2.04 -7 0 C-3.86650268 -1.04449911 -3.01031744 -0.93423645 0 0 Z " fill="#1478A7" transform="translate(19,64)"/>
<path d="M0 0 C2.475 0.495 2.475 0.495 5 1 C5 2.32 5 3.64 5 5 C3.68 4.67 2.36 4.34 1 4 C0.67 2.68 0.34 1.36 0 0 Z " fill="#00070F" transform="translate(45,34)"/>
<path d="M0 0 C3.63 0 7.26 0 11 0 C11 0.99 11 1.98 11 3 C9.35333797 2.8864371 7.70763918 2.75882619 6.0625 2.625 C5.14597656 2.55539063 4.22945313 2.48578125 3.28515625 2.4140625 C2.15400391 2.20910156 2.15400391 2.20910156 1 2 C0.67 1.34 0.34 0.68 0 0 Z " fill="#1879A5" transform="translate(75,36)"/>
<path d="M0 0 C0.66 0 1.32 0 2 0 C2.66 1.32 3.32 2.64 4 4 C2.35 5.32 0.7 6.64 -1 8 C-0.67 5.36 -0.34 2.72 0 0 Z " fill="#19759C" transform="translate(92,23)"/>
</svg>
