<?xml version="1.0" encoding="UTF-8"?>
<svg version="1.1" xmlns="http://www.w3.org/2000/svg" width="127" height="127">
<path d="M0 0 C0.99741211 0.00572021 1.99482422 0.01144043 3.02246094 0.01733398 C21.3782168 0.45571124 36.13216204 8.27776726 48.8125 21.5 C58.94567592 33.86524001 64.42068394 47.67627707 64.3125 63.6875 C64.30677979 64.68491211 64.30105957 65.68232422 64.29516602 66.70996094 C63.85678876 85.0657168 56.03473274 99.81966204 42.8125 112.5 C30.44725999 122.63317592 16.63622293 128.10818394 0.625 128 C-0.37241211 127.99427979 -1.36982422 127.98855957 -2.39746094 127.98266602 C-20.7532168 127.54428876 -35.50716204 119.72223274 -48.1875 106.5 C-58.32067592 94.13475999 -63.79568394 80.32372293 -63.6875 64.3125 C-63.68177979 63.31508789 -63.67605957 62.31767578 -63.67016602 61.29003906 C-63.23178876 42.9342832 -55.40973274 28.18033796 -42.1875 15.5 C-29.82225999 5.36682408 -16.01122293 -0.10818394 0 0 Z " fill="#0682BB" transform="translate(63.1875,-0.5)"/>
<path d="M0 0 C0.99741211 0.00572021 1.99482422 0.01144043 3.02246094 0.01733398 C21.3782168 0.45571124 36.13216204 8.27776726 48.8125 21.5 C58.94567592 33.86524001 64.42068394 47.67627707 64.3125 63.6875 C64.30677979 64.68491211 64.30105957 65.68232422 64.29516602 66.70996094 C63.85678876 85.0657168 56.03473274 99.81966204 42.8125 112.5 C30.44725999 122.63317592 16.63622293 128.10818394 0.625 128 C-0.37241211 127.99427979 -1.36982422 127.98855957 -2.39746094 127.98266602 C-20.7532168 127.54428876 -35.50716204 119.72223274 -48.1875 106.5 C-58.32067592 94.13475999 -63.79568394 80.32372293 -63.6875 64.3125 C-63.68177979 63.31508789 -63.67605957 62.31767578 -63.67016602 61.29003906 C-63.23178876 42.9342832 -55.40973274 28.18033796 -42.1875 15.5 C-29.82225999 5.36682408 -16.01122293 -0.10818394 0 0 Z M-5.42578125 11.44921875 C-7.82032219 15.59586282 -7.73390763 18.98255005 -7.75 23.6875 C-8.21505307 40.03901487 -8.21505307 40.03901487 -12.86010742 45.44750977 C-15.57087097 47.83808872 -18.07974548 48.93609606 -21.4375 50.25 C-22.51515625 50.67796875 -23.5928125 51.1059375 -24.703125 51.546875 C-25.52296875 51.86140625 -26.3428125 52.1759375 -27.1875 52.5 C-27.20731934 53.50675781 -27.22713867 54.51351562 -27.24755859 55.55078125 C-27.32494961 59.36804861 -27.41343183 63.18499892 -27.50488281 67.00195312 C-27.54263207 68.63860716 -27.57756712 70.27532909 -27.609375 71.91210938 C-27.80326068 81.77604341 -28.37129531 91.40880311 -29.77197266 101.1796875 C-30.12563541 104.00566488 -30.27055104 106.65870903 -30.1875 109.5 C-16.7650853 117.38503069 -3.55809728 121.31287641 12.06152344 118.02685547 C25.61748155 114.28526321 38.68064068 105.96201864 45.89599609 93.65136719 C53.79198536 79.25544103 57.82459277 64.9636262 53.25 48.6875 C48.13632031 34.39770519 38.64317315 21.41533657 24.8125 14.5 C17.17534819 11.63836842 9.36763989 9.50076614 1.1875 9.125 C0.08535156 9.05152344 0.08535156 9.05152344 -1.0390625 8.9765625 C-3.39018715 9.375059 -3.39018715 9.375059 -5.42578125 11.44921875 Z " fill="#011421" transform="translate(63.1875,-0.5)"/>
<path d="M0 0 C15.15112593 5.40394418 26.38929667 14.9371308 34.3503418 28.9453125 C38.48720926 37.87168301 40.54486514 45.3087564 40.32299805 55.1953125 C40.30688477 56.25145752 40.29077148 57.30760254 40.27416992 58.39575195 C39.84457285 75.34257057 34.0132022 87.64206471 22.2956543 100.04296875 C11.35251189 110.0993087 -3.45467588 116.6909561 -18.36450195 116.5703125 C-19.10466553 116.56467285 -19.8448291 116.5590332 -20.60742188 116.55322266 C-32.04030015 116.30298521 -41.14722239 112.71860928 -51.11450195 107.2578125 C-51.77450195 108.5778125 -52.43450195 109.8978125 -53.11450195 111.2578125 C-59.71667433 107.46767651 -59.71667433 107.46767651 -60.77856445 104.23828125 C-60.88942383 103.50222656 -61.0002832 102.76617187 -61.11450195 102.0078125 C-61.86670198 97.04492753 -64.06769707 94.49389787 -67.2355957 90.7109375 C-74.90570846 80.69673623 -77.94621372 69.7141469 -77.11450195 57.2578125 C-76.81946047 55.91548638 -76.49979857 54.57706812 -76.11450195 53.2578125 C-75.45450195 53.2578125 -74.79450195 53.2578125 -74.11450195 53.2578125 C-74.00493164 53.92425781 -73.89536133 54.59070312 -73.7824707 55.27734375 C-71.99041086 65.69460221 -69.43477386 74.53720072 -65.11450195 84.2578125 C-64.78450195 72.0478125 -64.45450195 59.8378125 -64.11450195 47.2578125 C-67.08450195 47.2578125 -70.05450195 47.2578125 -73.11450195 47.2578125 C-72.78450195 46.2678125 -72.45450195 45.2778125 -72.11450195 44.2578125 C-68.73950195 43.1328125 -68.73950195 43.1328125 -65.11450195 42.2578125 C-63.62950195 41.7628125 -63.62950195 41.7628125 -62.11450195 41.2578125 C-61.31237567 39.38394034 -61.31237567 39.38394034 -60.92700195 37.1953125 C-60.76844727 36.46183594 -60.60989258 35.72835937 -60.4465332 34.97265625 C-60.33696289 34.40675781 -60.22739258 33.84085938 -60.11450195 33.2578125 C-59.78450195 33.2578125 -59.45450195 33.2578125 -59.11450195 33.2578125 C-59.10237167 34.1883696 -59.10237167 34.1883696 -59.08999634 35.13772583 C-59.00318459 41.66052957 -58.90365901 48.18305574 -58.79711914 54.70556641 C-58.75910117 57.13195085 -58.72420372 59.55838646 -58.69262695 61.98486328 C-58.94025156 82.3772208 -58.94025156 82.3772208 -55.11450195 102.2578125 C-53.85654009 94.68561491 -52.85205697 87.18622128 -52.3605957 79.5234375 C-52.11450195 77.2578125 -52.11450195 77.2578125 -51.11450195 76.2578125 C-50.95643665 74.33302437 -50.86336695 72.4028204 -50.7980957 70.47265625 C-50.75620117 69.30283203 -50.71430664 68.13300781 -50.67114258 66.92773438 C-50.63182617 65.69603516 -50.59250977 64.46433594 -50.55200195 63.1953125 C-50.48722656 61.34196289 -50.48722656 61.34196289 -50.42114258 59.45117188 C-50.31465997 56.38683915 -50.21264771 53.32242177 -50.11450195 50.2578125 C-48.62950195 49.7628125 -48.62950195 49.7628125 -47.11450195 49.2578125 C-46.85012213 92.17275949 -46.85012213 92.17275949 -49.11450195 102.2578125 C-48.39133789 102.5465625 -47.66817383 102.8353125 -46.9230957 103.1328125 C-45.16381919 103.83750184 -43.40579632 104.54533808 -41.6496582 105.2578125 C-40.42569336 105.7528125 -40.42569336 105.7528125 -39.17700195 106.2578125 C-38.36360352 106.5878125 -37.55020508 106.9178125 -36.7121582 107.2578125 C-35.85493164 107.5878125 -34.99770508 107.9178125 -34.11450195 108.2578125 C-33.20313477 108.61875 -32.29176758 108.9796875 -31.3527832 109.3515625 C-18.45213766 112.96187585 -4.75388153 110.44518099 6.88549805 104.2578125 C20.910873 95.9146886 28.83288008 83.96974727 34.0925293 68.76953125 C37.51539584 53.61112226 33.94172906 39.09895986 25.8659668 26.046875 C16.77681315 13.24676513 5.06265236 6.55828246 -10.21606445 3.671875 C-12.76367434 3.30793073 -15.23132562 3.03055308 -17.80200195 2.9453125 C-18.92155273 2.88923828 -18.92155273 2.88923828 -20.0637207 2.83203125 C-22.21333963 3.10695011 -22.21333963 3.10695011 -23.8137207 4.70703125 C-25.7368773 8.47826626 -25.90275161 12.20314652 -26.23950195 16.3828125 C-26.38471326 18.01070767 -26.53300479 19.6383319 -26.68481445 21.265625 C-26.74427246 21.98379395 -26.80373047 22.70196289 -26.86499023 23.44189453 C-27.11450195 25.2578125 -27.11450195 25.2578125 -28.11450195 27.2578125 C-28.77450195 27.2578125 -29.43450195 27.2578125 -30.11450195 27.2578125 C-30.26042984 23.54989706 -30.3487809 19.84272524 -30.42700195 16.1328125 C-30.46889648 15.08609375 -30.51079102 14.039375 -30.55395508 12.9609375 C-30.69209884 4.23025161 -30.69209884 4.23025161 -27.7199707 0.578125 C-20.19284362 -6.12519357 -8.76851182 -2.90440653 0 0 Z " fill="#01111D" transform="translate(82.114501953125,6.7421875)"/>
<path d="M0 0 C0.99741211 0.00572021 1.99482422 0.01144043 3.02246094 0.01733398 C21.3782168 0.45571124 36.13216204 8.27776726 48.8125 21.5 C58.94567592 33.86524001 64.42068394 47.67627707 64.3125 63.6875 C64.30677979 64.68491211 64.30105957 65.68232422 64.29516602 66.70996094 C63.85678876 85.0657168 56.03473274 99.81966204 42.8125 112.5 C30.44508343 122.63495959 16.63774942 128.10413014 0.625 128 C-0.86567993 127.99468262 -0.86567993 127.99468262 -2.38647461 127.98925781 C-13.76557325 127.73600152 -23.83109481 125.16483657 -33.1875 118.5 C-32.8575 117.18 -32.5275 115.86 -32.1875 114.5 C-31.1665625 114.91572266 -31.1665625 114.91572266 -30.125 115.33984375 C-26.83224269 116.64030774 -23.51744538 117.86041843 -20.1875 119.0625 C-18.393125 119.71412109 -18.393125 119.71412109 -16.5625 120.37890625 C-5.58264968 124.0261482 8.12522278 124.19043978 18.8125 119.5 C19.70751221 119.11279785 19.70751221 119.11279785 20.62060547 118.71777344 C35.97234795 111.95056648 48.30587965 102.41042169 54.6875 86.25 C59.03148771 71.77004096 61.03287926 54.33037979 54.35546875 40.24609375 C53.84628906 39.33988281 53.33710937 38.43367188 52.8125 37.5 C52.29300781 36.54222656 51.77351563 35.58445313 51.23828125 34.59765625 C42.42958968 19.62904051 29.33787572 10.92016984 12.796875 6.3828125 C6.26667586 4.80251697 -0.97469354 3.55215015 -6.92578125 7.16015625 C-11.8191013 12.2225029 -11.43231712 18.18814433 -11.5625 24.8125 C-12.13541748 38.98545154 -12.13541748 38.98545154 -16.1875 43.5 C-20.47925817 46.3559126 -24.03465444 47.5 -29.1875 47.5 C-29.4368357 45.89884424 -29.66128648 44.29379841 -29.875 42.6875 C-30.00261719 41.79417969 -30.13023438 40.90085938 -30.26171875 39.98046875 C-30.1875 37.5 -30.1875 37.5 -28.7421875 35.94921875 C-28.22914062 35.47097656 -27.71609375 34.99273437 -27.1875 34.5 C-25.31862122 26.99551001 -28.54330153 20.80948417 -31.97265625 14.28515625 C-33.1875 11.5 -33.1875 11.5 -32.1875 8.5 C-30.2890625 7.21875 -30.2890625 7.21875 -27.8125 6 C-27.02101563 5.5978125 -26.22953125 5.195625 -25.4140625 4.78125 C-17.0020446 1.44088454 -9.03957226 -0.06107819 0 0 Z " fill="#0783BB" transform="translate(63.1875,-0.5)"/>
<path d="M0 0 C1.12509213 3.37527638 0.90597042 3.91883406 -0.375 7.0625 C-0.65085937 7.75472656 -0.92671875 8.44695313 -1.2109375 9.16015625 C-1.76750652 10.45789886 -2.36850891 11.73701783 -3 13 C-3.33361919 15.91608998 -3.33361919 15.91608998 -3 19 C-2.484375 19.598125 -1.96875 20.19625 -1.4375 20.8125 C0.88906335 24.35292248 -0.28704014 27.97993716 -1 32 C-1.68707031 32.17015625 -2.37414062 32.3403125 -3.08203125 32.515625 C-3.98308594 32.75796875 -4.88414063 33.0003125 -5.8125 33.25 C-7.15248047 33.59804687 -7.15248047 33.59804687 -8.51953125 33.953125 C-11.61596021 35.25996431 -12.52602502 35.96112301 -14 39 C-14.46251611 42.15285042 -14.47466063 45.25525214 -14.4375 48.4375 C-14.42992676 49.33259277 -14.42235352 50.22768555 -14.41455078 51.14990234 C-14.09807262 63.98690327 -10.00873288 75.61540502 -1.1875 85.125 C1.68097712 88.8949985 1.75836206 91.32833318 2 96 C-9.86477812 86.7987435 -16.93681849 73.56928703 -20 59 C-20.42877145 55.25873964 -20.52543065 51.57623608 -20.5 47.8125 C-20.49427979 46.81508789 -20.48855957 45.81767578 -20.48266602 44.79003906 C-20.04774754 26.57910904 -12.43215345 13.07797961 0 0 Z " fill="#0684BD" transform="translate(20,16)"/>
<path d="M0 0 C3.48579191 1.98927391 6.19581306 4.39162612 8 8 C8.43011819 12.21019538 8.4699635 15.88692855 6.8125 19.8125 C4.28549495 22.86233368 1.55081434 25.22459283 -2 27 C-6.70777 27.39231417 -9.07079697 27.47336758 -13.3125 25.3125 C-16.66981719 22.42364567 -18.64419083 20.37206115 -19.31640625 15.890625 C-19.60047173 10.42923704 -18.6530871 7.26193495 -15 3 C-10.49067415 -1.06131508 -5.80840506 -1.04043363 0 0 Z " fill="#01101D" transform="translate(83,21)"/>
<path d="M0 0 C4.79959067 1.72785264 8.6951048 4.35130842 11 9 C11.96223156 13.38430322 12.03361551 17.21055314 9.75 21.1640625 C6.74908646 24.81017245 4.58823406 26.68816457 -0.26953125 27.2734375 C-7.98039405 27.58139823 -7.98039405 27.58139823 -11.5 24.6875 C-15.56948241 20.31280641 -16.40465051 17.97494215 -16.24609375 12.2109375 C-15.73415651 7.61162836 -13.39460756 5.40357592 -10.25 2.1875 C-6.36093773 -0.43013806 -4.60032877 -0.65718982 0 0 Z " fill="#02111D" transform="translate(98,54)"/>
<path d="M0 0 C3.95664641 2.05779073 6.42868719 4.11551757 8.03515625 8.2734375 C8.81712502 14.23594935 7.90999187 17.7186571 4.4453125 22.640625 C1.89164636 25.59750158 -0.31029753 26.05549171 -4.0703125 26.55078125 C-8.19498474 26.8340502 -11.0755193 26.67890362 -14.40234375 24.0859375 C-18.40801321 19.68947102 -19.4515071 16.28137589 -19.28125 10.265625 C-18.58474266 5.88020841 -16.0156895 3.1491423 -12.71484375 0.3984375 C-8.36507982 -1.38101138 -4.38474785 -1.62139781 0 0 Z " fill="#020D15" transform="translate(74.96484375,83.7265625)"/>
<path d="M0 0 C1.32 0 2.64 0 4 0 C7.96847723 20.83450545 9.62274415 48.82214785 2 69 C-3.72115709 59.00598502 -2.31470617 44.63605991 -2.26074219 33.45825195 C-2.24997329 30.80592218 -2.2607248 28.15426313 -2.2734375 25.50195312 C-2.27952976 16.81591958 -2.12728252 8.48368992 0 0 Z " fill="#0684BD" transform="translate(25,41)"/>
<path d="M0 0 C0 12.54 0 25.08 0 38 C-8.49715922 29.50284078 -9.20196275 17.43063022 -9.36328125 6.0390625 C-9 3 -9 3 -7.85546875 1.0859375 C-6 0 -6 0 0 0 Z " fill="#0584BE" transform="translate(18,54)"/>
<path d="M0 0 C4.25331827 0.86802414 6.18199992 2.40158324 9.0625 5.625 C9.75 9.125 9.75 9.125 9.0625 12.625 C7.06350675 15.56102134 5.61729057 17.24630844 2.08984375 18.10546875 C-1.61383097 18.36161074 -3.57703096 17.92238696 -6.4375 15.5625 C-8.33225662 11.85193494 -8.59904724 9.74129392 -7.9375 5.625 C-5.51605492 2.27770827 -4.06319154 0.86450884 0 0 Z " fill="#0C80B5" transform="translate(68.9375,87.375)"/>
<path d="M0 0 C4.25331827 0.86802414 6.18199992 2.40158324 9.0625 5.625 C9.79647997 9.73528784 9.45410679 11.82476004 7.625 15.5625 C4.3705567 18.18192997 2.28837726 18.35520174 -1.80859375 18.10546875 C-3.9375 17.625 -3.9375 17.625 -6.5 15.5625 C-8.31531677 11.85293965 -8.59372237 9.70816143 -7.9375 5.625 C-5.51605492 2.27770827 -4.06319154 0.86450884 0 0 Z " fill="#0882BA" transform="translate(76.9375,24.375)"/>
<path d="M0 0 C2.375 1.5625 2.375 1.5625 4 4 C4.80730018 8.01178761 4.61584485 10.97359191 2.5 14.5 C-1.04538056 16.62722834 -3.96765349 16.65411781 -8 16 C-10.4375 15 -10.4375 15 -12 13 C-12.89988447 10.28270181 -13.24495376 7.85593819 -13 5 C-9.59702063 -0.71214394 -6.3127196 -1.67480316 0 0 Z " fill="#0A7FB4" transform="translate(100,60)"/>
<path d="M0 0 C0.33 0 0.66 0 1 0 C1.02578125 1.29292969 1.0515625 2.58585937 1.078125 3.91796875 C1.53269547 19.69566874 3.64156265 34.08234211 14.8125 46.125 C17.68097712 49.8949985 17.75836206 52.32833318 18 57 C6.90167127 48.39313282 -0.7913568 35.91445217 -3 22 C-2.67 21.67 -2.34 21.34 -2 21 C-1.85547282 19.52492882 -1.77305075 18.0436396 -1.71875 16.5625 C-1.68136719 15.66789062 -1.64398438 14.77328125 -1.60546875 13.8515625 C-1.57066406 12.91054687 -1.53585938 11.96953125 -1.5 11 C-1.43141512 9.14566805 -1.35872187 7.29148192 -1.28125 5.4375 C-1.25095703 4.61121094 -1.22066406 3.78492188 -1.18945312 2.93359375 C-1 1 -1 1 0 0 Z " fill="#0F7AAA" transform="translate(4,55)"/>
<path d="M0 0 C1.32 0 2.64 0 4 0 C4 1.65 4 3.3 4 5 C2.68 5.33 1.36 5.66 0 6 C0.33 23.49 0.66 40.98 1 59 C3.96065114 48.637721 4.21191486 38.61095165 4.5625 27.875 C4.62727539 26.01101562 4.62727539 26.01101562 4.69335938 24.109375 C4.79846455 21.07300329 4.90061343 18.03656335 5 15 C5.33 15 5.66 15 6 15 C6.3798047 41.96029084 6.3798047 41.96029084 5.125 54.375 C5.04652832 55.16874023 4.96805664 55.96248047 4.88720703 56.78027344 C4.39921152 61.08325116 3.54055569 64.92205846 2 69 C-3.72115709 59.00598502 -2.31470617 44.63605991 -2.26074219 33.45825195 C-2.24997329 30.80592218 -2.2607248 28.15426313 -2.2734375 25.50195312 C-2.27952976 16.81591958 -2.12728252 8.48368992 0 0 Z " fill="#1578A7" transform="translate(25,41)"/>
<path d="M0 0 C0.33 0 0.66 0 1 0 C1.22234061 17.34256754 0.56108077 34.66917016 0 52 C-2 51 -2 51 -3 48 C-3.08494728 45.34105893 -3.11594796 42.70914623 -3.09765625 40.05078125 C-3.0962413 39.27816452 -3.09482635 38.50554779 -3.09336853 37.70951843 C-3.08777466 35.24380611 -3.07522333 32.77818485 -3.0625 30.3125 C-3.05748421 28.63997527 -3.05292144 26.96744912 -3.04882812 25.29492188 C-3.03780724 21.19657954 -3.02054684 17.09830521 -3 13 C-6.3 13.33 -9.6 13.66 -13 14 C-12.67 13.01 -12.34 12.02 -12 11 C-8.625 9.875 -8.625 9.875 -5 9 C-4.01 8.67 -3.02 8.34 -2 8 C-1.19787372 6.12612784 -1.19787372 6.12612784 -0.8125 3.9375 C-0.57466797 2.83728516 -0.57466797 2.83728516 -0.33203125 1.71484375 C-0.22246094 1.14894531 -0.11289062 0.58304688 0 0 Z " fill="#010408" transform="translate(22,40)"/>
<path d="M0 0 C7.48052868 2.37699042 13.68606318 5.32300976 20 10 C19.67 11.32 19.34 12.64 19 14 C20.32 14.33 21.64 14.66 23 15 C23.0825 15.61875 23.165 16.2375 23.25 16.875 C23.81258459 19.18437567 23.81258459 19.18437567 26.0625 20.25 C26.701875 20.4975 27.34125 20.745 28 21 C27.34 21.66 26.68 22.32 26 23 C25.56171875 22.50371094 25.1234375 22.00742187 24.671875 21.49609375 C14.74082947 10.85857141 0.3868913 3.36286613 -14.35546875 2.6953125 C-17.91255734 2.64217244 -21.44945316 2.77043878 -25 3 C-24.67 2.34 -24.34 1.68 -24 1 C-20.93744039 0.9729509 -17.8751214 0.95313702 -14.8125 0.9375 C-13.94818359 0.92912109 -13.08386719 0.92074219 -12.19335938 0.91210938 C-7.99713231 0.89603188 -4.09063114 0.92440962 0 2 C0 1.34 0 0.68 0 0 Z " fill="#0682BB" transform="translate(82,2)"/>
<path d="M0 0 C0 0.33 0 0.66 0 1 C-1.85625 1.37125 -1.85625 1.37125 -3.75 1.75 C-7.51439673 2.6710758 -9.53077893 3.91347366 -12 7 C-11.34 7 -10.68 7 -10 7 C-10.33 7.99 -10.66 8.98 -11 10 C-11.25621385 13.52294041 -11.39178311 16.12424951 -9.9375 19.375 C-7.15340041 21.71005127 -4.54909302 21.73214392 -1 22 C-1 22.33 -1 22.66 -1 23 C-3.31 23.33 -5.62 23.66 -8 24 C-8 24.66 -8 25.32 -8 26 C-5.36 26 -2.72 26 0 26 C0 26.33 0 26.66 0 27 C-4.66935037 27.46693504 -8.6102711 27.85149069 -12.4375 24.8125 C-16.44316946 20.41603352 -17.48666335 17.00793839 -17.31640625 10.9921875 C-16.61989891 6.60677091 -14.05084575 3.8757048 -10.75 1.125 C-6.98016023 -0.41720718 -4.05652128 -0.20626379 0 0 Z " fill="#001727" transform="translate(73,83)"/>
<path d="M0 0 C0.66 0 1.32 0 2 0 C5.09992796 5.85388181 7.37420877 11.2955269 6 18 C4.3125 20.0625 4.3125 20.0625 2 21 C-0.6875 21.25 -0.6875 21.25 -3 21 C-4 20 -4 20 -4.25 17.4375 C-3.98706095 13.82208811 -3.08619545 11.28453602 -1.734375 7.96875 C-0.7611366 5.35964279 -0.34442127 2.75537018 0 0 Z " fill="#0D7CAD" transform="translate(26,15)"/>
<path d="M0 0 C0.66 0 1.32 0 2 0 C2.02499226 4.23176701 2.04299623 8.46349323 2.05493164 12.6953125 C2.05991507 14.13054148 2.06670425 15.56576551 2.07543945 17.00097656 C2.12315577 25.05100017 2.06861751 33.00283763 1 41 C-0.485 41.495 -0.485 41.495 -2 42 C-2.14310346 32.36436696 -1.90957091 22.75473602 -1.5625 13.125 C-1.52326416 11.95340332 -1.48402832 10.78180664 -1.44360352 9.57470703 C-1.40162842 8.48013184 -1.35965332 7.38555664 -1.31640625 6.2578125 C-1.27974854 5.2692627 -1.24309082 4.28071289 -1.20532227 3.26220703 C-1 1 -1 1 0 0 Z " fill="#000409" transform="translate(33,56)"/>
<path d="M0 0 C0.33 0 0.66 0 1 0 C1.02578125 1.29292969 1.0515625 2.58585937 1.078125 3.91796875 C1.44290463 16.4179916 3.29146778 26.36591366 8 38 C6.35 36.68 4.7 35.36 3 34 C2.34 34.66 1.68 35.32 1 36 C0.30151736 34.06643218 -0.38344814 32.12797702 -1.0625 30.1875 C-1.44535156 29.10855469 -1.82820312 28.02960938 -2.22265625 26.91796875 C-3 24 -3 24 -2 21 C-1.86486196 19.45879944 -1.77615808 17.91323594 -1.71875 16.3671875 C-1.68136719 15.47902344 -1.64398438 14.59085938 -1.60546875 13.67578125 C-1.53486247 11.80079229 -1.4645524 9.92579215 -1.39453125 8.05078125 C-1.35714844 7.16519531 -1.31976563 6.27960937 -1.28125 5.3671875 C-1.25095703 4.55362793 -1.22066406 3.74006836 -1.18945312 2.90185547 C-1 1 -1 1 0 0 Z " fill="#0E79A8" transform="translate(4,55)"/>
<path d="M0 0 C0 9.9 0 19.8 0 30 C-0.33 30 -0.66 30 -1 30 C-1.02505615 29.37432129 -1.0501123 28.74864258 -1.07592773 28.10400391 C-1.19175273 25.27745381 -1.31453985 22.45124831 -1.4375 19.625 C-1.47681641 18.64015625 -1.51613281 17.6553125 -1.55664062 16.640625 C-1.61948242 15.22910156 -1.61948242 15.22910156 -1.68359375 13.7890625 C-1.72025146 12.91975098 -1.75690918 12.05043945 -1.79467773 11.15478516 C-1.87401544 8.9516738 -1.87401544 8.9516738 -3 7 C-3 5.68 -3 4.36 -3 3 C-3.33 3.99 -3.66 4.98 -4 6 C-4.99 6.495 -4.99 6.495 -6 7 C-6.22428282 14.94957992 -5.95403042 22.27111181 -4 30 C-9.67269435 23.00626724 -9.24027029 14.72552869 -9.36328125 6.0390625 C-9 3 -9 3 -7.85546875 1.0859375 C-6 0 -6 0 0 0 Z " fill="#116F9C" transform="translate(18,54)"/>
<path d="M0 0 C5.75 0.75 5.75 0.75 8 3 C8.31537716 7.33643601 8.44897847 9.32653229 6 13 C2.375 13.1875 2.375 13.1875 -1 13 C-0.67 12.01 -0.34 11.02 0 10 C-0.66 10 -1.32 10 -2 10 C-2 7.36 -2 4.72 -2 2 C-1.34 2 -0.68 2 0 2 C0 1.34 0 0.68 0 0 Z " fill="#0782B8" transform="translate(70,90)"/>
<path d="M0 0 C0.66 1.32 1.32 2.64 2 4 C2.33 4.33 2.66 4.66 3 5 C3.33 4.01 3.66 3.02 4 2 C6.31 2 8.62 2 11 2 C10.34 2.66 9.68 3.32 9 4 C8.01 4 7.02 4 6 4 C6.00523682 5.04865234 6.01047363 6.09730469 6.01586914 7.17773438 C6.03408185 11.09894952 6.04549105 15.02016099 6.05493164 18.94140625 C6.05993487 20.63281891 6.06673952 22.32422731 6.07543945 24.015625 C6.08768185 26.45834411 6.09326855 28.90100562 6.09765625 31.34375 C6.10281754 32.08991577 6.10797882 32.83608154 6.11329651 33.6048584 C6.11380862 38.48755973 5.69035046 43.16515799 5 48 C4.67 48 4.34 48 4 48 C4.33 34.8 4.66 21.6 5 8 C4.01 8.495 4.01 8.495 3 9 C2.67 17.58 2.34 26.16 2 35 C1.67 35 1.34 35 1 35 C0.505 17.675 0.505 17.675 0 0 Z " fill="#022236" transform="translate(30,48)"/>
<path d="M0 0 C13.6332574 -0.3690205 13.6332574 -0.3690205 20 2 C20 2.33 20 2.66 20 3 C18.35 3.33 16.7 3.66 15 4 C18.3 4.99 21.6 5.98 25 7 C25 7.66 25 8.32 25 9 C24.05640625 8.79503906 23.1128125 8.59007812 22.140625 8.37890625 C14.08620884 6.68877274 6.23844373 5.44490664 -2 5 C-1.34 3.35 -0.68 1.7 0 0 Z " fill="#011421" transform="translate(59,4)"/>
<path d="M0 0 C0 0.66 0 1.32 0 2 C-1.423125 2.12375 -1.423125 2.12375 -2.875 2.25 C-6.08330183 2.63960014 -6.08330183 2.63960014 -7.25 4.9375 C-7.4975 5.618125 -7.745 6.29875 -8 7 C-8.66 7.66 -9.32 8.32 -10 9 C-10.20998984 12.03776488 -10.30117626 14.99151216 -10.30859375 18.03125 C-10.33378057 19.89323193 -10.35917815 21.75521103 -10.38476562 23.6171875 C-10.41335539 26.54849321 -10.43736923 29.47974873 -10.45629883 32.41113281 C-10.47816096 35.24311995 -10.51764348 38.07448344 -10.55859375 40.90625 C-10.55870956 41.76706177 -10.55882538 42.62787354 -10.5589447 43.51477051 C-10.65871967 49.75061179 -11.94489752 55.12193023 -14 61 C-14.33 61 -14.66 61 -15 61 C-14.85669423 58.9998173 -14.71021706 56.99986175 -14.5625 55 C-14.48128906 53.88625 -14.40007813 52.7725 -14.31640625 51.625 C-14.10319558 49.18229008 -13.8296308 46.74419263 -13.5 44.31445312 C-12.95348331 39.98929439 -12.78114809 35.69927625 -12.68359375 31.34375 C-12.66281265 30.55601196 -12.64203156 29.76827393 -12.62062073 28.95666504 C-12.55589026 26.47118794 -12.49660094 23.98561667 -12.4375 21.5 C-12.39424177 19.80207408 -12.35062532 18.10415725 -12.30664062 16.40625 C-12.20028887 12.27092675 -12.09881251 8.13550999 -12 4 C-10.3767313 3.3291288 -8.75132422 2.66342971 -7.125 2 C-6.22007813 1.62875 -5.31515625 1.2575 -4.3828125 0.875 C-2 0 -2 0 0 0 Z " fill="#1574A0" transform="translate(48,48)"/>
<path d="M0 0 C3.16115776 1.36983503 3.9927092 1.9890638 6 5 C6 6.32 6 7.64 6 9 C6.66 9.33 7.32 9.66 8 10 C8 11.32 8 12.64 8 14 C8.66 14 9.32 14 10 14 C13.29235636 26.3659337 16.07814411 41.09696778 10 53 C9 50 9 50 10 47 C11.44329204 29.508762 9.72598424 16.72791899 0 2 C0 1.34 0 0.68 0 0 Z " fill="#12719D" transform="translate(111,27)"/>
<path d="M0 0 C7.90143876 1.06343532 15.52135348 2.85781217 22.69921875 6.36328125 C22.03921875 7.02328125 21.37921875 7.68328125 20.69921875 8.36328125 C20.69921875 7.70328125 20.69921875 7.04328125 20.69921875 6.36328125 C19.15234375 6.17765625 19.15234375 6.17765625 17.57421875 5.98828125 C13.69921875 5.36328125 13.69921875 5.36328125 10.91796875 4.33203125 C7.23317791 3.22301653 4.16356596 3.16584074 0.32421875 3.23828125 C-1.54363281 3.26535156 -1.54363281 3.26535156 -3.44921875 3.29296875 C-4.39023437 3.31617188 -5.33125 3.339375 -6.30078125 3.36328125 C-6.63078125 5.01328125 -6.96078125 6.66328125 -7.30078125 8.36328125 C-7.96078125 8.36328125 -8.62078125 8.36328125 -9.30078125 8.36328125 C-9.2850708 8.98372314 -9.26936035 9.60416504 -9.25317383 10.2434082 C-9.19081911 13.05410653 -9.15178977 15.86465937 -9.11328125 18.67578125 C-9.08814453 19.65224609 -9.06300781 20.62871094 -9.03710938 21.63476562 C-9.02744141 22.57255859 -9.01777344 23.51035156 -9.0078125 24.4765625 C-8.99210205 25.34063721 -8.9763916 26.20471191 -8.96020508 27.0949707 C-9.36837447 29.81346661 -10.19671029 30.66691954 -12.30078125 32.36328125 C-12.14222656 31.24308594 -11.98367187 30.12289062 -11.8203125 28.96875 C-11.42670193 25.83847753 -11.2090165 22.75506728 -11.125 19.6015625 C-11.10115234 18.79267578 -11.07730469 17.98378906 -11.05273438 17.15039062 C-11.00946742 15.4892018 -10.97838094 13.82765461 -10.95898438 12.16601562 C-10.82064417 8.14771533 -10.5816546 5.84015534 -8.50390625 2.3125 C-5.72058972 -0.15004423 -3.64533433 -0.21088711 0 0 Z " fill="#1674A0" transform="translate(66.30078125,8.63671875)"/>
<path d="M0 0 C9.37047497 -0.91501926 9.37047497 -0.91501926 13.25390625 1.265625 C15.66256658 3.3373746 17.57258084 5.14516168 19 8 C19.06950541 9.54023996 19.08452357 11.08334988 19.0625 12.625 C19.05347656 13.44226562 19.04445313 14.25953125 19.03515625 15.1015625 C19.02355469 15.72804688 19.01195313 16.35453125 19 17 C18.67 17 18.34 17 18 17 C17.87625 15.865625 17.7525 14.73125 17.625 13.5625 C17.41875 12.386875 17.2125 11.21125 17 10 C16.34 9.67 15.68 9.34 15 9 C15 12.3 15 15.6 15 19 C13.35 19.66 11.7 20.32 10 21 C10.495 20.319375 10.99 19.63875 11.5 18.9375 C13.37276489 15.27000208 13.59172793 13.06812955 13 9 C10.71709187 6.62342275 10.71709187 6.62342275 8 5 C7.34 4.34 6.68 3.68 6 3 C8.97 3.495 8.97 3.495 12 4 C12 3.34 12 2.68 12 2 C8.04 1.67 4.08 1.34 0 1 C0 0.67 0 0.34 0 0 Z " fill="#01192A" transform="translate(72,21)"/>
<path d="M0 0 C0.33 0.99 0.66 1.98 1 3 C-3.34723655 10.7064648 -10.71098493 17.14065662 -18 22 C-18.99 22 -19.98 22 -21 22 C-21 21.34 -21 20.68 -21 20 C-18.80126681 18.1631982 -16.48799344 16.52626829 -14.1640625 14.8515625 C-11.94681424 12.95449449 -11.23608299 11.57647677 -10 9 C-8.37890625 7.65625 -8.37890625 7.65625 -6.5625 6.5 C-3.77281648 4.62277546 -1.81730912 2.88631448 0 0 Z " fill="#0584BE" transform="translate(116,96)"/>
<path d="M0 0 C0.33 0 0.66 0 1 0 C1.3798047 26.96029084 1.3798047 26.96029084 0.125 39.375 C0.04652832 40.16874023 -0.03194336 40.96248047 -0.11279297 41.78027344 C-0.60078848 46.08325116 -1.45944431 49.92205846 -3 54 C-5.39073445 50.17482487 -5.55966552 46.40334476 -6 42 C-5.34 42.66 -4.68 43.32 -4 44 C-0.70976551 33.90994755 -0.78132919 23.40406443 -0.4375 12.875 C-0.37272461 11.01101562 -0.37272461 11.01101562 -0.30664062 9.109375 C-0.20153545 6.07300329 -0.09938657 3.03656335 0 0 Z " fill="#1A739D" transform="translate(30,56)"/>
<path d="M0 0 C0.66 0 1.32 0 2 0 C2.33 1.98 2.66 3.96 3 6 C8.445 5.505 8.445 5.505 14 5 C14.33 5.99 14.66 6.98 15 8 C12.47524538 9.26237731 10.68799534 9.09856404 7.875 9.0625 C6.96492188 9.05347656 6.05484375 9.04445313 5.1171875 9.03515625 C4.41851562 9.02355469 3.71984375 9.01195312 3 9 C2.67 10.65 2.34 12.3 2 14 C-0.08557757 10.87163364 -0.36393593 9.51376966 -0.6875 5.875 C-0.77386719 4.98554687 -0.86023438 4.09609375 -0.94921875 3.1796875 C-0.96597656 2.46039063 -0.98273437 1.74109375 -1 1 C-0.67 0.67 -0.34 0.34 0 0 Z " fill="#01060B" transform="translate(31,41)"/>
<path d="M0 0 C0.33 0 0.66 0 1 0 C1.309375 1.134375 1.61875 2.26875 1.9375 3.4375 C2.62924531 6.78775099 2.62924531 6.78775099 4 8 C4.66 7.34 5.32 6.68 6 6 C6.165 6.61875 6.33 7.2375 6.5 7.875 C8.90181375 11.27756949 12.00162134 11.22612026 16 12 C16 12.33 16 12.66 16 13 C13.36 13 10.72 13 8 13 C8 13.66 8 14.32 8 15 C9.32 15.33 10.64 15.66 12 16 C10.375 16.8125 10.375 16.8125 8 17 C4.63692285 14.57858445 2.30190493 12.4528574 0 9 C-0.1953125 6.73828125 -0.1953125 6.73828125 -0.125 4.3125 C-0.10695313 3.50425781 -0.08890625 2.69601563 -0.0703125 1.86328125 C-0.04710938 1.24839844 -0.02390625 0.63351563 0 0 Z " fill="#021827" transform="translate(82,64)"/>
<path d="M0 0 C0.33 0 0.66 0 1 0 C1.33 4.29 1.66 8.58 2 13 C2.66 13 3.32 13 4 13 C4.08159574 17.16138263 3.98248524 20.9472484 3 25 C2.01 24.34 1.02 23.68 0 23 C-0.66 23.33 -1.32 23.66 -2 24 C-1.34 16.08 -0.68 8.16 0 0 Z " fill="#011320" transform="translate(30,84)"/>
<path d="M0 0 C0.99 0.66 1.98 1.32 3 2 C2.67 2.99 2.34 3.98 2 5 C1.26394531 4.98839844 0.52789062 4.97679688 -0.23046875 4.96484375 C-1.20628906 4.95582031 -2.18210937 4.94679688 -3.1875 4.9375 C-4.15042969 4.92589844 -5.11335938 4.91429688 -6.10546875 4.90234375 C-8.85576513 4.99513378 -11.32479591 5.37888315 -14 6 C-13 3 -13 3 -10.9375 1.3125 C-6.94701035 -0.47048474 -4.36044236 -0.35164858 0 0 Z " fill="#01070C" transform="translate(75,84)"/>
<path d="M0 0 C3.04195832 3.04195832 3.19567075 5.86793385 3.3125 10 C3.34988281 10.86625 3.38726562 11.7325 3.42578125 12.625 C3 15 3 15 0.98046875 16.8125 C0.32691406 17.204375 -0.32664063 17.59625 -1 18 C-1.99 17.01 -2.98 16.02 -4 15 C-3.67 14.67 -3.34 14.34 -3 14 C-2.92794489 12.31391034 -2.91613932 10.62499341 -2.9375 8.9375 C-2.94652344 8.01839844 -2.95554687 7.09929688 -2.96484375 6.15234375 C-2.97644531 5.44207031 -2.98804687 4.73179688 -3 4 C-2.34 4 -1.68 4 -1 4 C-0.67 4.99 -0.34 5.98 0 7 C0 4.69 0 2.38 0 0 Z " fill="#021625" transform="translate(34,19)"/>
<path d="M0 0 C0.66 0 1.32 0 2 0 C2.96205088 6.37358711 3.10655578 12.55929529 3 19 C2.01 19 1.02 19 0 19 C-0.95807717 15.77599427 -1.13422292 12.85714324 -1.125 9.5 C-1.12757813 8.5615625 -1.13015625 7.623125 -1.1328125 6.65625 C-1.01392868 4.2785737 -0.67551722 2.27316904 0 0 Z " fill="#000912" transform="translate(6,60)"/>
<path d="M0 0 C0.66 0 1.32 0 2 0 C3.72206188 2.99126319 4.24179923 5.10685713 4.1953125 8.546875 C4.18886719 9.39121094 4.18242188 10.23554687 4.17578125 11.10546875 C4.15902344 11.97816406 4.14226562 12.85085937 4.125 13.75 C4.11597656 14.63816406 4.10695313 15.52632812 4.09765625 16.44140625 C4.07414577 18.62788058 4.04128499 20.81380094 4 23 C3.34 23.33 2.68 23.66 2 24 C1.93941406 22.85660156 1.87882812 21.71320313 1.81640625 20.53515625 C1.73201572 19.04425695 1.64736698 17.55337225 1.5625 16.0625 C1.52318359 15.30775391 1.48386719 14.55300781 1.44335938 13.77539062 C1.55961976 10.08055813 1.55961976 10.08055813 0 7 C-0.04092937 4.66702567 -0.04241723 2.33294775 0 0 Z " fill="#020307" transform="translate(117,46)"/>
<path d="M0 0 C4.17570333 4.89565218 6.7135571 10.02007242 9 16 C6.26346761 15.6363214 5.17818233 15.19019462 3.26171875 13.14453125 C-1.02772605 6.79019243 -1.02772605 6.79019243 -0.875 2.4375 C-0.58625 1.633125 -0.2975 0.82875 0 0 Z " fill="#0484BE" transform="translate(7,87)"/>
<path d="M0 0 C1.65 0 3.3 0 5 0 C5 0.66 5 1.32 5 2 C11.93 2 18.86 2 26 2 C26 2.66 26 3.32 26 4 C22.41673499 4.05814085 18.83359162 4.09364357 15.25 4.125 C14.23421875 4.14175781 13.2184375 4.15851563 12.171875 4.17578125 C11.1921875 4.18222656 10.2125 4.18867187 9.203125 4.1953125 C7.85202637 4.21102295 7.85202637 4.21102295 6.47363281 4.22705078 C3.86073144 3.98721676 2.24335334 3.32312064 0 2 C0 1.34 0 0.68 0 0 Z " fill="#030204" transform="translate(46,117)"/>
<path d="M0 0 C0.680625 0.27714844 1.36125 0.55429688 2.0625 0.83984375 C5.35525731 2.14030774 8.67005462 3.36041843 12 4.5625 C13.794375 5.21412109 13.794375 5.21412109 15.625 5.87890625 C18.43077492 6.81091713 21.0911646 7.50968494 24 8 C24 8.33 24 8.66 24 9 C18.78020872 9.1799928 14.92737019 8.97094808 10 7 C10 6.34 10 5.68 10 5 C8.1128125 5.309375 8.1128125 5.309375 6.1875 5.625 C2.5985242 6.21335669 2.24926122 6.16617415 -1 4 C-0.67 2.68 -0.34 1.36 0 0 Z " fill="#1577A5" transform="translate(31,114)"/>
<path d="M0 0 C3.48523002 4.28951387 3.43371114 7.7087241 3 13 C2.34 13.66 1.68 14.32 1 15 C1 12.03 1 9.06 1 6 C0.34 6 -0.32 6 -1 6 C-1 7.98 -1 9.96 -1 12 C-1.33 12 -1.66 12 -2 12 C-2.433125 10.3603125 -2.433125 10.3603125 -2.875 8.6875 C-3.81893204 4.95986155 -3.81893204 4.95986155 -6 2 C-2.25 0 -2.25 0 0 0 Z " fill="#011322" transform="translate(80,87)"/>
<path d="M0 0 C0.33 0 0.66 0 1 0 C1.02689449 2.95839355 1.04678741 5.91654427 1.0625 8.875 C1.07087891 9.71675781 1.07925781 10.55851562 1.08789062 11.42578125 C1.09111328 12.23144531 1.09433594 13.03710938 1.09765625 13.8671875 C1.10289307 14.61081543 1.10812988 15.35444336 1.11352539 16.12060547 C1 18 1 18 0 20 C-0.66 20 -1.32 20 -2 20 C-2.05425226 17.60385874 -2.09379027 15.20896147 -2.125 12.8125 C-2.14175781 12.13896484 -2.15851562 11.46542969 -2.17578125 10.77148438 C-2.21538674 6.71192193 -1.80020002 3.65001185 0 0 Z " fill="#010407" transform="translate(54,14)"/>
<path d="M0 0 C3.00024947 -0.05444001 5.99949039 -0.0938836 9 -0.125 C9.83917969 -0.14175781 10.67835937 -0.15851563 11.54296875 -0.17578125 C17.05254877 -0.21849117 21.71048292 0.44497993 27 2 C27 2.66 27 3.32 27 4 C27.66 4 28.32 4 29 4 C29 4.66 29 5.32 29 6 C28.25234375 5.79503906 27.5046875 5.59007812 26.734375 5.37890625 C25.25710937 4.97478516 25.25710937 4.97478516 23.75 4.5625 C22.77546875 4.29566406 21.8009375 4.02882813 20.796875 3.75390625 C19.87390625 3.50511719 18.9509375 3.25632812 18 3 C17.071875 2.70609375 17.071875 2.70609375 16.125 2.40625 C12.84863317 1.77988575 9.5713504 1.89668946 6.25 1.9375 C5.55261719 1.94201172 4.85523438 1.94652344 4.13671875 1.95117188 C2.42444197 1.9628998 0.71220967 1.98083347 -1 2 C-0.67 1.34 -0.34 0.68 0 0 Z " fill="#167FB0" transform="translate(58,3)"/>
<path d="M0 0 C0.33 0 0.66 0 1 0 C0.78625569 6.73294563 -0.47171973 10.47844878 -4.52734375 15.859375 C-6.12796591 17.98408102 -6.12796591 17.98408102 -6.94140625 20.703125 C-8 23 -8 23 -10.125 23.8125 C-10.74375 23.874375 -11.3625 23.93625 -12 24 C-11.46890625 23.10539062 -10.9378125 22.21078125 -10.390625 21.2890625 C-6.3336645 14.37344032 -2.66117398 7.59835203 0 0 Z " fill="#011C2F" transform="translate(116,76)"/>
<path d="M0 0 C0.33 0.66 0.66 1.32 1 2 C-2.02448274 6.23427584 -5.36134122 9.60585353 -10 12 C-13.4375 12.3125 -13.4375 12.3125 -16 12 C-12.16445975 9.08320544 -8.20775543 6.3569826 -4.2421875 3.62109375 C-1.94405667 2.04987682 -1.94405667 2.04987682 0 0 Z " fill="#1176A5" transform="translate(105,105)"/>
<path d="M0 0 C0.33 0 0.66 0 1 0 C1.33 9.9 1.66 19.8 2 30 C-1.08669204 26.91330796 -1.44855089 26.08072342 -2 22 C-1.67 22 -1.34 22 -1 22 C-0.67 14.74 -0.34 7.48 0 0 Z " fill="#1780B1" transform="translate(16,62)"/>
<path d="M0 0 C-0.33 1.65 -0.66 3.3 -1 5 C-8.50769231 5.36923077 -8.50769231 5.36923077 -11 3.5 C-11.33 3.005 -11.66 2.51 -12 2 C-7.8794254 0.00214565 -4.54805635 -0.17835515 0 0 Z " fill="#021520" transform="translate(82,43)"/>
<path d="M0 0 C0.66 0 1.32 0 2 0 C1.34 4.29 0.68 8.58 0 13 C-1.32 12.01 -2.64 11.02 -4 10 C-4.25 6.8125 -4.25 6.8125 -4 4 C-3.34 4 -2.68 4 -2 4 C-1.34 2.68 -0.68 1.36 0 0 Z " fill="#00060B" transform="translate(87,60)"/>
<path d="M0 0 C0.33 0 0.66 0 1 0 C1.0544207 2.68777802 1.09387266 5.37443212 1.125 8.0625 C1.14175781 8.81466797 1.15851563 9.56683594 1.17578125 10.34179688 C1.21865121 15.29327709 0.58399375 19.30414451 -1 24 C-1.33 24 -1.66 24 -2 24 C-2.33853295 15.83759432 -1.29901921 8.04927976 0 0 Z " fill="#0F6C95" transform="translate(117,55)"/>
<path d="M0 0 C0.99 0.66 1.98 1.32 3 2 C3 3.32 3 4.64 3 6 C3.66 6 4.32 6 5 6 C5.96070434 8.88211302 6.10581883 10.69850044 6.0625 13.6875 C6.05347656 14.49574219 6.04445313 15.30398437 6.03515625 16.13671875 C6.02355469 16.75160156 6.01195313 17.36648437 6 18 C5.34 18 4.68 18 4 18 C3.98582031 17.43152344 3.97164063 16.86304687 3.95703125 16.27734375 C3.57065671 10.02225318 1.99324026 6.81236646 -2 2 C-1.34 2 -0.68 2 0 2 C0 1.34 0 0.68 0 0 Z " fill="#117CAF" transform="translate(87,20)"/>
<path d="M0 0 C0.45375 0.495 0.9075 0.99 1.375 1.5 C2.87635519 3.22609337 2.87635519 3.22609337 5 3 C4.34 5.97 3.68 8.94 3 12 C2.34 10.68 1.68 9.36 1 8 C0.34 8 -0.32 8 -1 8 C-1 9.65 -1 11.3 -1 13 C-1.99 13.33 -2.98 13.66 -4 14 C-3.79503906 13.32453125 -3.59007813 12.6490625 -3.37890625 11.953125 C-3.10949219 11.06109375 -2.84007813 10.1690625 -2.5625 9.25 C-2.16224609 7.92742188 -2.16224609 7.92742188 -1.75390625 6.578125 C-1.11531506 4.39434165 -0.53224167 2.21164502 0 0 Z " fill="#011E30" transform="translate(21,15)"/>
<path d="M0 0 C0.66 0.66 1.32 1.32 2 2 C1.625 4.125 1.625 4.125 1 6 C1 5.01 1 4.02 1 3 C0.01 3.495 0.01 3.495 -1 4 C-1.65555119 6.52733235 -1.65555119 6.52733235 -2 9 C-2.33 9 -2.66 9 -3 9 C-3 7.02 -3 5.04 -3 3 C-4.32 3 -5.64 3 -7 3 C-7.33 6.63 -7.66 10.26 -8 14 C-8.33 14 -8.66 14 -9 14 C-9 9.71 -9 5.42 -9 1 C-7.88625 1.020625 -6.7725 1.04125 -5.625 1.0625 C-2.16784079 1.26380718 -2.16784079 1.26380718 0 0 Z " fill="#001B2B" transform="translate(32,38)"/>
<path d="M0 0 C0 0.66 0 1.32 0 2 C-1.423125 2.12375 -1.423125 2.12375 -2.875 2.25 C-6.08330183 2.63960014 -6.08330183 2.63960014 -7.25 4.9375 C-7.4975 5.618125 -7.745 6.29875 -8 7 C-8.66 7.66 -9.32 8.32 -10 9 C-10.40047444 11.32275177 -10.7397104 13.65739357 -11 16 C-11.33 16 -11.66 16 -12 16 C-12 12.04 -12 8.08 -12 4 C-2.25 0 -2.25 0 0 0 Z " fill="#137CAE" transform="translate(48,48)"/>
<path d="M0 0 C0.66 0.66 1.32 1.32 2 2 C-1.02734375 2.24414062 -1.02734375 2.24414062 -4.0546875 2.48828125 C-6.39519216 2.87393036 -6.39519216 2.87393036 -8 6 C-8.45139459 8.0492094 -8.45139459 8.0492094 -8.625 10.1875 C-8.74875 11.445625 -8.8725 12.70375 -9 14 C-11 12 -11 12 -11.4375 8.6875 C-11 5 -11 5 -8.875 2.0625 C-5.54095495 -0.32931492 -4.01298073 -0.62424145 0 0 Z " fill="#17719B" transform="translate(80,25)"/>
<path d="M0 0 C0.79664062 0.00257812 1.59328125 0.00515625 2.4140625 0.0078125 C3.20554687 0.00523438 3.99703125 0.00265625 4.8125 0 C7.0390625 0.1328125 7.0390625 0.1328125 10.0390625 1.1328125 C10.0390625 1.7928125 10.0390625 2.4528125 10.0390625 3.1328125 C8.99105469 3.22369141 8.99105469 3.22369141 7.921875 3.31640625 C7.01179688 3.40019531 6.10171875 3.48398437 5.1640625 3.5703125 C4.25914063 3.65152344 3.35421875 3.73273437 2.421875 3.81640625 C0.02795389 4.00270535 0.02795389 4.00270535 -1.9609375 5.1328125 C-2.5234375 3.1953125 -2.5234375 3.1953125 -2.9609375 1.1328125 C-1.9609375 0.1328125 -1.9609375 0.1328125 0 0 Z " fill="#01070C" transform="translate(73.9609375,21.8671875)"/>
<path d="M0 0 C1.45823212 -0.0270043 2.91660675 -0.04639787 4.375 -0.0625 C5.18710938 -0.07410156 5.99921875 -0.08570313 6.8359375 -0.09765625 C9 0 9 0 11 1 C11 1.99 11 2.98 11 4 C6.53160785 4.21278058 3.17737474 3.59138085 -1 2 C-0.67 1.34 -0.34 0.68 0 0 Z " fill="#02060C" transform="translate(74,7)"/>
<path d="M0 0 C1.0730756 3.2192268 0.79946725 3.90206442 0 7 C0.33 7.66 0.66 8.32 1 9 C0.67 9.66 0.34 10.32 0 11 C1.65 11 3.3 11 5 11 C2 13 2 13 -2 13 C-2.2493357 11.39884424 -2.47378648 9.79379841 -2.6875 8.1875 C-2.81511719 7.29417969 -2.94273438 6.40085937 -3.07421875 5.48046875 C-3 3 -3 3 -1.51953125 1.17578125 C-1.01808594 0.78777344 -0.51664063 0.39976563 0 0 Z " fill="#14719C" transform="translate(36,34)"/>
<path d="M0 0 C0.33 0 0.66 0 1 0 C1.08696177 3.93736123 1.14037835 7.87447628 1.1875 11.8125 C1.21263672 12.93205078 1.23777344 14.05160156 1.26367188 15.20507812 C1.27333984 16.27822266 1.28300781 17.35136719 1.29296875 18.45703125 C1.3086792 19.44678955 1.32438965 20.43654785 1.34057617 21.45629883 C0.95047123 24.3699213 0.27991712 25.22497802 -2 27 C-1.84660156 25.88625 -1.69320312 24.7725 -1.53515625 23.625 C-0.92693771 18.75925164 -0.66688586 13.89607197 -0.4375 9 C-0.39431641 8.12988281 -0.35113281 7.25976562 -0.30664062 6.36328125 C-0.20175782 4.24231781 -0.10049925 2.12117567 0 0 Z " fill="#116993" transform="translate(56,14)"/>
<path d="M0 0 C1.7492214 -0.08142927 3.49954542 -0.13938541 5.25 -0.1875 C6.22453125 -0.22230469 7.1990625 -0.25710937 8.203125 -0.29296875 C11.37468742 0.03924798 12.67040307 0.88672279 15 3 C14.67 4.32 14.34 5.64 14 7 C11.36 6.01 8.72 5.02 6 4 C9 3 9 3 12 4 C12 3.34 12 2.68 12 2 C8.04 1.67 4.08 1.34 0 1 C0 0.67 0 0.34 0 0 Z " fill="#01121F" transform="translate(72,21)"/>
<path d="M0 0 C0.66 0.66 1.32 1.32 2 2 C2.99 2 3.98 2 5 2 C4.88637738 3.4800841 4.75877092 4.95910074 4.625 6.4375 C4.55539063 7.26121094 4.48578125 8.08492187 4.4140625 8.93359375 C4.27742188 9.61550781 4.14078125 10.29742187 4 11 C3.01 11.495 3.01 11.495 2 12 C0.86235649 7.73383684 0 4.43513689 0 0 Z " fill="#14688D" transform="translate(24,98)"/>
<path d="M0 0 C6.52307692 1.47692308 6.52307692 1.47692308 8.9375 4.125 C9.288125 4.74375 9.63875 5.3625 10 6 C9.34 6.66 8.68 7.32 8 8 C1.23076923 4.55384615 1.23076923 4.55384615 0.0625 1.75 C0.041875 1.1725 0.02125 0.595 0 0 Z " fill="#02070F" transform="translate(96,17)"/>
<path d="M0 0 C-0.33 0.99 -0.66 1.98 -1 3 C-3.97 3 -6.94 3 -10 3 C-10.33 2.01 -10.66 1.02 -11 0 C-3.375 -1.125 -3.375 -1.125 0 0 Z " fill="#00060B" transform="translate(75,106)"/>
<path d="M0 0 C1.32 0 2.64 0 4 0 C4 1.65 4 3.3 4 5 C2.68 5.33 1.36 5.66 0 6 C0 7.98 0 9.96 0 12 C-0.33 12 -0.66 12 -1 12 C-1.14285714 3.42857143 -1.14285714 3.42857143 0 0 Z " fill="#177AA7" transform="translate(25,41)"/>
<path d="M0 0 C6.70212766 1.93617021 6.70212766 1.93617021 9 5 C9 5.66 9 6.32 9 7 C10.32 7.66 11.64 8.32 13 9 C12.34 9.66 11.68 10.32 11 11 C7.33333333 7.33333333 3.66666667 3.66666667 0 0 Z " fill="#12729D" transform="translate(97,14)"/>
<path d="M0 0 C0.33 0.66 0.66 1.32 1 2 C0.67 2.66 0.34 3.32 0 4 C-0.66 4 -1.32 4 -2 4 C-2.33 5.98 -2.66 7.96 -3 10 C-3.99 9.67 -4.98 9.34 -6 9 C-6.375 6.75 -6.375 6.75 -6 4 C-3 1.6875 -3 1.6875 0 0 Z " fill="#030408" transform="translate(28,10)"/>
<path d="M0 0 C3.3 0 6.6 0 10 0 C10 0.99 10 1.98 10 3 C6.7 3 3.4 3 0 3 C0 2.01 0 1.02 0 0 Z " fill="#01060A" transform="translate(92,56)"/>
<path d="M0 0 C0.33 1.32 0.66 2.64 1 4 C-1.47926969 5.4303479 -3.25041938 6.03505871 -6.125 6.4375 C-7.548125 6.7159375 -7.548125 6.7159375 -9 7 C-9.99 8.485 -9.99 8.485 -11 10 C-11.66 10 -12.32 10 -13 10 C-11.63016497 6.83884224 -11.0109362 6.0072908 -8 4 C-5.95703125 3.5859375 -5.95703125 3.5859375 -3.8125 3.375 C-2.554375 3.25125 -1.29625 3.1275 0 3 C0 2.01 0 1.02 0 0 Z " fill="#032235" transform="translate(19,45)"/>
<path d="M0 0 C-0.99 0.33 -1.98 0.66 -3 1 C-3 1.66 -3 2.32 -3 3 C-2.01 3.33 -1.02 3.66 0 4 C-1.32 4.33 -2.64 4.66 -4 5 C-4 4.34 -4 3.68 -4 3 C-8.455 3.495 -8.455 3.495 -13 4 C-10.56272708 2.37515139 -8.62713877 1.34310925 -5.9375 0.3125 C-5.24527344 0.04050781 -4.55304688 -0.23148437 -3.83984375 -0.51171875 C-2 -1 -2 -1 0 0 Z " fill="#001728" transform="translate(89,113)"/>
<path d="M0 0 C3.3 0 6.6 0 10 0 C10 0.66 10 1.32 10 2 C9.34 2 8.68 2 8 2 C8 2.66 8 3.32 8 4 C6.02 4 4.04 4 2 4 C1.34 2.68 0.68 1.36 0 0 Z " fill="#00050A" transform="translate(90,77)"/>
<path d="M0 0 C2.31 0.33 4.62 0.66 7 1 C7 1.33 7 1.66 7 2 C5.35 2 3.7 2 2 2 C2 2.66 2 3.32 2 4 C3.32 4.66 4.64 5.32 6 6 C3.69 5.67 1.38 5.34 -1 5 C-0.67 3.35 -0.34 1.7 0 0 Z " fill="#001927" transform="translate(44,115)"/>
<path d="M0 0 C0.99 0.66 1.98 1.32 3 2 C2.67 4.97 2.34 7.94 2 11 C0.35 11.33 -1.3 11.66 -3 12 C-2.67 11.34 -2.34 10.68 -2 10 C-1.01 10 -0.02 10 1 10 C0.67 6.7 0.34 3.4 0 0 Z " fill="#1777A5" transform="translate(17,37)"/>
<path d="M0 0 C2.475 0.99 2.475 0.99 5 2 C4.67 3.32 4.34 4.64 4 6 C1.525 5.01 1.525 5.01 -1 4 C-0.67 2.68 -0.34 1.36 0 0 Z " fill="#117EB0" transform="translate(31,114)"/>
<path d="M0 0 C0.33 1.32 0.66 2.64 1 4 C-1.25 6.75 -1.25 6.75 -4 9 C-4.99 9 -5.98 9 -7 9 C-4.69 6.03 -2.38 3.06 0 0 Z " fill="#1275A3" transform="translate(113,95)"/>
<path d="M0 0 C0.33 0 0.66 0 1 0 C0.67 2.97 0.34 5.94 0 9 C0.66 9.33 1.32 9.66 2 10 C0.68 9.67 -0.64 9.34 -2 9 C-2.125 5.625 -2.125 5.625 -2 2 C-1.34 1.34 -0.68 0.68 0 0 Z " fill="#020409" transform="translate(59,92)"/>
<path d="M0 0 C0.66 0.99 1.32 1.98 2 3 C2.66 2.01 3.32 1.02 4 0 C4.33 3.3 4.66 6.6 5 10 C4.34 8.68 3.68 7.36 3 6 C1.68 6.33 0.36 6.66 -1 7 C-0.67 4.69 -0.34 2.38 0 0 Z " fill="#010F1A" transform="translate(19,88)"/>
<path d="M0 0 C3.5 0.3125 3.5 0.3125 6.5 2.3125 C0.065 2.8075 0.065 2.8075 -6.5 3.3125 C-3.5 0.3125 -3.5 0.3125 0 0 Z " fill="#022135" transform="translate(94.5,53.6875)"/>
<path d="M0 0 C0.99 0.33 1.98 0.66 3 1 C2.4140625 7.15234375 2.4140625 7.15234375 2 9 C1.01 9.495 1.01 9.495 0 10 C0 6.7 0 3.4 0 0 Z " fill="#020306" transform="translate(87,30)"/>
<path d="M0 0 C0.99 0.33 1.98 0.66 3 1 C4.47666292 4.49029418 4.07164685 8.27436386 4 12 C2.5393715 9.35261084 2 8.10551666 2 5 C1.34 5 0.68 5 0 5 C0 3.35 0 1.7 0 0 Z " fill="#020307" transform="translate(31,18)"/>
<path d="M0 0 C0 0.66 0 1.32 0 2 C-3.3 2.66 -6.6 3.32 -10 4 C-10 3.01 -10 2.02 -10 1 C-6.59437148 0.22157062 -3.49234244 -0.09978121 0 0 Z " fill="#020405" transform="translate(85,116)"/>
<path d="M0 0 C1.98 1.32 3.96 2.64 6 4 C5.01 4.33 4.02 4.66 3 5 C2.01 4.34 1.02 3.68 0 3 C0.33 3.99 0.66 4.98 1 6 C-1.475 5.01 -1.475 5.01 -4 4 C-2.68 3.34 -1.36 2.68 0 2 C0 1.34 0 0.68 0 0 Z " fill="#011323" transform="translate(96,14)"/>
<path d="M0 0 C3 0.375 3 0.375 6 3.375 C2.04 3.375 -1.92 3.375 -6 3.375 C-3 0.375 -3 0.375 0 0 Z " fill="#146D97" transform="translate(69,87.625)"/>
<path d="M0 0 C0.99 0.33 1.98 0.66 3 1 C2.67 1.99 2.34 2.98 2 4 C0.125 4.875 0.125 4.875 -2 5 C-3.75 3.5625 -3.75 3.5625 -5 2 C-3.35 2 -1.7 2 0 2 C0 1.34 0 0.68 0 0 Z " fill="#020304" transform="translate(30,35)"/>
<path d="M0 0 C2.97 0 5.94 0 9 0 C9.33 0.66 9.66 1.32 10 2 C9.67 2.66 9.34 3.32 9 4 C2.25 2.25 2.25 2.25 0 0 Z " fill="#0D7CAB" transform="translate(92,11)"/>
<path d="M0 0 C2.97 0 5.94 0 9 0 C9 0.66 9 1.32 9 2 C9.66 2 10.32 2 11 2 C11 2.66 11 3.32 11 4 C7.37 3.01 3.74 2.02 0 1 C0 0.67 0 0.34 0 0 Z " fill="#136D95" transform="translate(76,5)"/>
<path d="M0 0 C1.98 0.66 3.96 1.32 6 2 C6 2.99 6 3.98 6 5 C4.125 4.75 4.125 4.75 2 4 C0.75 1.9375 0.75 1.9375 0 0 Z " fill="#010607" transform="translate(68,40)"/>
<path d="M0 0 C0.66 0 1.32 0 2 0 C2 1.98 2 3.96 2 6 C1.34 6 0.68 6 0 6 C0 6.66 0 7.32 0 8 C-0.66 8 -1.32 8 -2 8 C-1.34 5.36 -0.68 2.72 0 0 Z " fill="#020405" transform="translate(51,35)"/>
<path d="M0 0 C-0.33 1.32 -0.66 2.64 -1 4 C-2.65 4 -4.3 4 -6 4 C-6 3.34 -6 2.68 -6 2 C-3 0 -3 0 0 0 Z " fill="#010608" transform="translate(92,112)"/>
</svg>
