<?xml version="1.0" encoding="UTF-8"?>
<svg version="1.1" xmlns="http://www.w3.org/2000/svg" width="127" height="126">
<path d="M0 0 C1.19238281 0.00572021 2.38476562 0.01144043 3.61328125 0.01733398 C17.66562976 0.30148074 28.41263741 4.1543668 39.8125 12.5 C40.864375 13.263125 41.91625 14.02625 43 14.8125 C55.7892556 27.03334424 63.66267107 42.70122131 64.21264648 60.40307617 C64.45557036 79.32414712 59.18635906 95.61003565 45.8125 109.5 C32.24579324 121.24906787 18.55625244 127.09970221 0.625 127 C-0.56738281 126.99427979 -1.75976562 126.98855957 -2.98828125 126.98266602 C-17.04062976 126.69851926 -27.78763741 122.8456332 -39.1875 114.5 C-40.239375 113.736875 -41.29125 112.97375 -42.375 112.1875 C-55.1642556 99.96665576 -63.03767107 84.29877869 -63.58764648 66.59692383 C-63.83057036 47.67585288 -58.56135906 31.38996435 -45.1875 17.5 C-31.62079324 5.75093213 -17.93125244 -0.09970221 0 0 Z " fill="#0784BC" transform="translate(63.1875,-0.5)"/>
<path d="M0 0 C1.26650391 0.00966797 1.26650391 0.00966797 2.55859375 0.01953125 C3.43128906 0.03628906 4.30398437 0.05304687 5.203125 0.0703125 C6.09128906 0.07933594 6.97945312 0.08835938 7.89453125 0.09765625 C10.08100558 0.12116673 12.26692594 0.15402751 14.453125 0.1953125 C14.8857666 1.1685144 14.8857666 1.1685144 15.32714844 2.16137695 C15.6987207 2.83257568 16.07029297 3.50377441 16.453125 4.1953125 C17.78018725 4.55279632 19.11381922 4.88685034 20.453125 5.1953125 C25.09711052 13.98571365 24.30456686 23.03852414 21.640625 32.3828125 C20.62109375 35.67578125 20.62109375 35.67578125 19.453125 38.1953125 C18.463125 38.5253125 17.473125 38.8553125 16.453125 39.1953125 C16.123125 41.8353125 15.793125 44.4753125 15.453125 47.1953125 C19.90605733 49.63924745 24.21385957 50.99525241 29.140625 52.0703125 C36.00514042 53.66249872 42.17221752 55.9484027 48.453125 59.1953125 C47.88156632 62.94406499 46.32372125 64.65045692 43.703125 67.3203125 C37.26321174 74.34881999 34.76318051 80.95509045 32.453125 90.1953125 C13.973125 90.1953125 -4.506875 90.1953125 -23.546875 90.1953125 C-25.526875 83.7603125 -25.526875 83.7603125 -27.546875 77.1953125 C-31.28210407 70.18122506 -31.28210407 70.18122506 -36.484375 64.3203125 C-38.546875 62.1953125 -38.546875 62.1953125 -38.671875 60.0703125 C-35.91103613 55.46891438 -30.56831114 54.51903091 -25.6953125 53.30078125 C-24.44621094 53.00107422 -24.44621094 53.00107422 -23.171875 52.6953125 C-17.35658 51.28692074 -11.98396842 49.71601349 -6.546875 47.1953125 C-7.01200651 42.54399736 -8.42721224 39.14755022 -10.5625 35.078125 C-14.53183923 27.48597616 -15.53113733 19.95258043 -13.796875 11.5703125 C-12.24959822 7.3926652 -10.59143066 3.47356481 -6.69824219 1.03955078 C-4.29767769 0.09752263 -2.57083192 -0.03474097 0 0 Z " fill="#000103" transform="translate(58.546875,-0.1953125)"/>
<path d="M0 0 C14.48686316 0.85216842 27.39366767 8.32629741 37 19 C37.52851562 19.52464844 38.05703125 20.04929687 38.6015625 20.58984375 C50.57957891 33.06914279 54.51083269 48.91304428 54.42211914 65.7277832 C53.99392913 82.25310964 47.56713283 97.08928896 36 109 C32.19052364 112.25762497 28.12375593 115.15460841 24 118 C23.01 117.34 22.02 116.68 21 116 C18.71909256 115.67299844 18.71909256 115.67299844 16.16137695 115.68115234 C15.1805867 115.66128265 14.19979645 115.64141296 13.18928528 115.62094116 C12.13295395 115.60938995 11.07662262 115.59783875 9.98828125 115.5859375 C8.90491989 115.56657135 7.82155853 115.5472052 6.70536804 115.5272522 C3.24115907 115.46741656 -0.22308305 115.4210547 -3.6875 115.375 C-6.03451979 115.33682393 -8.38152552 115.29777242 -10.72851562 115.2578125 C-16.48555234 115.16171176 -22.24267359 115.07667587 -28 115 C-27.505 114.01 -27.505 114.01 -27 113 C-13.8 112.67 -0.6 112.34 13 112 C12.67 111.34 12.34 110.68 12 110 C11.92805131 107.11629667 11.90708292 104.25760336 11.9375 101.375 C11.94201172 100.57320313 11.94652344 99.77140625 11.95117188 98.9453125 C11.96296832 96.96350994 11.98090395 94.98174567 12 93 C15.465 92.01 15.465 92.01 19 91 C19.0515625 90.11699219 19.103125 89.23398438 19.15625 88.32421875 C20.15120459 77.79805143 23.60812602 71.19999234 31.1953125 63.8828125 C33.22724458 62.03187922 33.22724458 62.03187922 34 59 C31.92226529 58.30742176 29.84433815 57.61541722 27.765625 56.92578125 C25.85624341 56.28662385 23.95016089 55.63755555 22.046875 54.98046875 C17.38853678 53.38588374 12.83495621 51.89176767 8 50.9375 C4.68828599 50.2703489 2.50050122 49.39178377 0 47 C0.33333333 45.66666667 0.66666667 44.33333333 1 43 C1.144375 42.278125 1.28875 41.55625 1.4375 40.8125 C1.623125 40.214375 1.80875 39.61625 2 39 C2.99 38.505 2.99 38.505 4 38 C8.66751624 27.01259863 9.50034983 16.37613695 6 5 C5.36578125 4.87753906 4.7315625 4.75507812 4.078125 4.62890625 C2 4 2 4 0.75 1.9375 C0.5025 1.298125 0.255 0.65875 0 0 Z " fill="#0484BE" transform="translate(73,0)"/>
<path d="M0 0 C14.19 0 28.38 0 43 0 C43 5.61 43 11.22 43 17 C28.81 17 14.62 17 0 17 C0 11.39 0 5.78 0 0 Z " fill="#000002" transform="translate(41,95)"/>
<path d="M0 0 C21.78 0 43.56 0 66 0 C57.07393479 8.92606521 45.58224125 9.53202776 33.5 9.625 C20.63065524 9.52602543 10.28530321 8.22824257 0 0 Z " fill="#00070D" transform="translate(30,117)"/>
<path d="M0 0 C1.53166168 4.08443115 0.63081652 7.79455657 0 12 C-2.31 12.66 -4.62 13.32 -7 14 C-7 20.27 -7 26.54 -7 33 C-7.66 33 -8.32 33 -9 33 C-10.28365387 30.43269226 -10.13275635 28.55347003 -10.125 25.6875 C-10.12757812 24.74261719 -10.13015625 23.79773438 -10.1328125 22.82421875 C-10 20 -10 20 -9 15 C-22.86 15 -36.72 15 -51 15 C-50.67 14.34 -50.34 13.68 -50 13 C-52.31 12.67 -54.62 12.34 -57 12 C-57 11.67 -57 11.34 -57 11 C-38.85 11 -20.7 11 -2 11 C-1.67 8.36 -1.34 5.72 -1 3 C-0.67 2.01 -0.34 1.02 0 0 Z " fill="#0D709F" transform="translate(93,79)"/>
<path d="M0 0 C14.19 0 28.38 0 43 0 C43 0.33 43 0.66 43 1 C29.8 1.66 16.6 2.32 3 3 C3 6.63 3 10.26 3 14 C15.21 14 27.42 14 40 14 C40.33 11.03 40.66 8.06 41 5 C41.33 5 41.66 5 42 5 C42.495 10.94 42.495 10.94 43 17 C28.81 17 14.62 17 0 17 C0 11.39 0 5.78 0 0 Z " fill="#022136" transform="translate(41,95)"/>
<path d="M0 0 C0.99 0.495 0.99 0.495 2 1 C2 2.32 2 3.64 2 5 C9.35090074 4.90780734 16.70146877 4.80051176 24.05200195 4.68261719 C26.55357841 4.64428881 29.05521072 4.60944282 31.55688477 4.578125 C35.14880357 4.53255854 38.74033662 4.47454976 42.33203125 4.4140625 C43.45398392 4.40251129 44.57593658 4.39096008 45.73188782 4.37905884 C46.77274033 4.35918915 47.81359283 4.33931946 48.88598633 4.31884766 C49.80309891 4.30552399 50.72021149 4.29220032 51.66511536 4.2784729 C54.27061139 4.14622426 54.27061139 4.14622426 57 2 C57 3.32 57 4.64 57 6 C38.52 6 20.04 6 1 6 C0.67 4.02 0.34 2.04 0 0 Z " fill="#000917" transform="translate(34,84)"/>
<path d="M0 0 C1.32 0 2.64 0 4 0 C4 0.99 4 1.98 4 3 C4.99 3.33 5.98 3.66 7 4 C7.33 5.98 7.66 7.96 8 10 C8.66 10 9.32 10 10 10 C10.05413245 12.89608593 10.09373641 15.79115195 10.125 18.6875 C10.15013672 19.91243164 10.15013672 19.91243164 10.17578125 21.16210938 C10.2114802 25.57092929 10.07580814 28.98731576 8 33 C7.34 32.67 6.68 32.34 6 32 C6.33 31.0925 6.66 30.185 7 29.25 C9.2783082 21.22710041 8.41947733 12.86330131 6 5 C5.36578125 4.87753906 4.7315625 4.75507812 4.078125 4.62890625 C2 4 2 4 0.75 1.9375 C0.5025 1.298125 0.255 0.65875 0 0 Z " fill="#167CA9" transform="translate(73,0)"/>
<path d="M0 0 C0.66 0.99 1.32 1.98 2 3 C1.01 3.66 0.02 4.32 -1 5 C-1.495 5.825 -1.99 6.65 -2.5 7.5 C-4 10 -4 10 -7 12 C-7.12375 12.639375 -7.2475 13.27875 -7.375 13.9375 C-8 16 -8 16 -10.5625 17.75 C-11.366875 18.1625 -12.17125 18.575 -13 19 C-11.68462703 15.30132749 -10.08520735 12.55108685 -7.625 9.5 C-7.00753906 8.72785156 -6.39007813 7.95570312 -5.75390625 7.16015625 C-5.17511719 6.44730469 -4.59632812 5.73445313 -4 5 C-3.195625 3.989375 -2.39125 2.97875 -1.5625 1.9375 C-1.046875 1.298125 -0.53125 0.65875 0 0 Z " fill="#1579A7" transform="translate(107,60)"/>
<path d="M0 0 C0.33 0.99 0.66 1.98 1 3 C0.01 4.485 0.01 4.485 -1 6 C-3.16833385 11.02994452 -3.10570704 15.05838017 -2.625 20.375 C-2.56828125 21.11105469 -2.5115625 21.84710937 -2.453125 22.60546875 C-2.31293882 24.40452468 -2.15798214 26.20241939 -2 28 C-5.47314043 21.27961444 -5.77702926 14.58628889 -4.1875 7.25 C-3.1081981 4.29612112 -2.06067225 2.34167302 0 0 Z " fill="#001222" transform="translate(49,4)"/>
<path d="M0 0 C6.06860493 1.32405926 11.39763719 3.32850292 17 6 C16.625 7.9375 16.625 7.9375 16 10 C15.01 10.495 15.01 10.495 14 11 C14 9.35 14 7.7 14 6 C7.11175931 3.59009896 7.11175931 3.59009896 0 2 C0 1.34 0 0.68 0 0 Z " fill="#001424" transform="translate(90,53)"/>
<path d="M0 0 C-0.33 0.556875 -0.66 1.11375 -1 1.6875 C-2.1309601 4.30284522 -2.15662974 6.1806646 -2 9 C-3.32 8.01 -4.64 7.02 -6 6 C-5.6875 4.125 -5.6875 4.125 -5 2 C-2 0 -2 0 0 0 Z " fill="#000C1B" transform="translate(26,56)"/>
<path d="M0 0 C0.33 0 0.66 0 1 0 C1.05428973 2.22889496 1.09292338 4.45817471 1.125 6.6875 C1.14820312 7.92886719 1.17140625 9.17023437 1.1953125 10.44921875 C1.01032021 13.81237857 0.45767895 15.9985587 -1 19 C-1.66 18.67 -2.32 18.34 -3 18 C-2.690625 17.071875 -2.38125 16.14375 -2.0625 15.1875 C-0.6216844 10.22128454 -0.35305964 5.13794694 0 0 Z " fill="#146F9B" transform="translate(82,14)"/>
<path d="M0 0 C0.33 0 0.66 0 1 0 C1.33730842 1.43657245 1.66969591 2.87430093 2 4.3125 C2.185625 5.11300781 2.37125 5.91351563 2.5625 6.73828125 C3 9 3 9 3 12 C1 11 1 11 0.375 9.375 C-0.12095645 6.2339425 -0.06103811 3.17398169 0 0 Z " fill="#17719B" transform="translate(44,23)"/>
</svg>
