<?xml version="1.0" encoding="UTF-8"?>
<svg version="1.1" xmlns="http://www.w3.org/2000/svg" width="127" height="127">
<path d="M0 0 C0.99741211 0.00572021 1.99482422 0.01144043 3.02246094 0.01733398 C21.3782168 0.45571124 36.13216204 8.27776726 48.8125 21.5 C58.94567592 33.86524001 64.42068394 47.67627707 64.3125 63.6875 C64.30677979 64.68491211 64.30105957 65.68232422 64.29516602 66.70996094 C63.85678876 85.0657168 56.03473274 99.81966204 42.8125 112.5 C30.44725999 122.63317592 16.63622293 128.10818394 0.625 128 C-0.37241211 127.99427979 -1.36982422 127.98855957 -2.39746094 127.98266602 C-20.7532168 127.54428876 -35.50716204 119.72223274 -48.1875 106.5 C-58.32067592 94.13475999 -63.79568394 80.32372293 -63.6875 64.3125 C-63.68177979 63.31508789 -63.67605957 62.31767578 -63.67016602 61.29003906 C-63.23178876 42.9342832 -55.40973274 28.18033796 -42.1875 15.5 C-29.82225999 5.36682408 -16.01122293 -0.10818394 0 0 Z " fill="#0583BD" transform="translate(63.1875,-0.5)"/>
<path d="M0 0 C6.89318588 5.15048292 14.85719079 11.83722857 18 20 C19.47630712 33.30815983 10.16884997 45.26701035 2.3515625 55.06640625 C-7.48857419 65.83061669 -22.05523454 72.84143249 -36.46875 74.3671875 C-41.53042214 74.47994752 -46.46558078 74.433103 -51 72 C-60.78035086 61.7647491 -62.49741714 50.23807943 -62.42333984 36.57592773 C-61.99919339 21.2388496 -56.12578529 0.12578529 -45 -11 C-29.89429856 -16.21466308 -12.50370032 -8.32903414 0 0 Z " fill="#000306" transform="translate(108,53)"/>
<path d="M0 0 C7.23340756 5.81734364 8.45706439 18.59972771 9.4765625 27.1875 C9.4765625 28.8375 9.4765625 30.4875 9.4765625 32.1875 C1.5565625 32.6825 1.5565625 32.6825 -6.5234375 33.1875 C-5.8634375 31.8675 -5.2034375 30.5475 -4.5234375 29.1875 C-10.4634375 28.5275 -16.4034375 27.8675 -22.5234375 27.1875 C-19.36402569 32.79224857 -19.36402569 32.79224857 -14.3984375 35.8125 C-13.4703125 35.998125 -13.4703125 35.998125 -12.5234375 36.1875 C-13.57769301 42.83286336 -16.47065731 48.96642213 -22.00390625 52.9921875 C-23.73792967 53.9808626 -25.48521768 54.9467022 -27.24609375 55.88671875 C-30.92694215 57.98915875 -32.97539747 60.49770991 -34.2734375 64.5 C-34.3559375 65.056875 -34.4384375 65.61375 -34.5234375 66.1875 C-31.83423758 66.03383143 -30.07176379 65.74673051 -28.1484375 63.78515625 C-26.93808203 62.25420067 -25.73062521 60.72095465 -24.5234375 59.1875 C-23.8634375 59.1875 -23.2034375 59.1875 -22.5234375 59.1875 C-23.16892603 61.93758135 -23.81481516 64.68756756 -24.4609375 67.4375 C-24.64333984 68.21480469 -24.82574219 68.99210937 -25.01367188 69.79296875 C-25.27954102 70.92412109 -25.27954102 70.92412109 -25.55078125 72.078125 C-25.71312256 72.76938477 -25.87546387 73.46064453 -26.04272461 74.17285156 C-26.5220037 76.18149101 -27.01890352 78.18506942 -27.5234375 80.1875 C-36.52843075 79.14908636 -43.99309144 70.31054024 -49.6171875 63.6953125 C-55.34783231 56.15622649 -62.33390866 46.527642 -64.5234375 37.1875 C-62.39970833 25.51366796 -52.76712193 14.73758503 -43.3984375 7.91015625 C-31.29190762 -0.44367113 -14.13403024 -8.66085257 0 0 Z " fill="#000205" transform="translate(68.5234375,3.8125)"/>
<path d="M0 0 C6.40353322 -0.2361959 11.84629161 0.176679 18 2 C17.67 2.99 17.34 3.98 17 5 C21.95 5 26.9 5 32 5 C32 5.33 32 5.66 32 6 C27.545 6.495 27.545 6.495 23 7 C24.24716797 7.05607422 24.24716797 7.05607422 25.51953125 7.11328125 C26.60621094 7.17902344 27.69289062 7.24476562 28.8125 7.3125 C29.89144531 7.37050781 30.97039062 7.42851563 32.08203125 7.48828125 C35.17497517 8.03068507 36.13022903 8.55289624 38 11 C36.83082031 10.97679687 35.66164062 10.95359375 34.45703125 10.9296875 C32.90886058 10.91092179 31.36068297 10.89272245 29.8125 10.875 C28.65911133 10.84986328 28.65911133 10.84986328 27.48242188 10.82421875 C21.44636069 10.7096803 21.44636069 10.7096803 16 13 C14.18061967 15.36616736 12.84350957 17.9034645 11.5 20.5625 C10.91690063 21.68531372 10.91690063 21.68531372 10.32202148 22.83081055 C6.99271974 29.49427839 4.83343759 36.29597949 2.97265625 43.48828125 C2.20217006 46.27007678 1.42421741 48.51560281 0 51 C0 49.68 0 48.36 0 47 C-2.7839183 48.39195915 -2.97898997 50.15575779 -4 53 C-5.31246762 49.32685238 -4.67633026 46.77881467 -3.6875 43.0625 C-3.42324219 42.04285156 -3.15898438 41.02320313 -2.88671875 39.97265625 C-2.06942121 37.23272927 -1.11035128 34.63284169 0 32 C-2.90802461 34.21928194 -4.95312762 35.92969143 -7 39 C-9.625 39.1875 -9.625 39.1875 -12 39 C-11.5822506 34.26550674 -9.5236884 31.07278988 -6 28 C-4.55407883 27.30682431 -3.09439432 26.6419197 -1.625 26 C5.05685823 22.65347469 7.24444374 15.54776874 10 9 C9.23300781 8.89558594 8.46601562 8.79117188 7.67578125 8.68359375 C3.52043602 7.6220092 2.45278623 5.43390072 0 2 C0 1.34 0 0.68 0 0 Z " fill="#0D7EB2" transform="translate(46,31)"/>
<path d="M0 0 C0.99 0.86625 1.98 1.7325 3 2.625 C4.3307421 3.75306394 5.66420097 4.87792882 7 6 C7.62519531 6.53753906 8.25039062 7.07507813 8.89453125 7.62890625 C13.25226439 11.17011913 17.16567042 12.93530932 22.58984375 14.34375 C25.89810563 15.24454092 28.88503216 16.57794946 32 18 C28.27133997 24.03687815 21.56242436 27.87523566 14.75 29.5546875 C10.14585398 29.86043157 6.9213542 28.36654421 3.4765625 25.52734375 C-1.74262185 20.12866364 -1.30334675 14.09567351 -1.203125 6.98828125 C-1.03399912 4.50017937 -0.71694323 2.3763199 0 0 Z " fill="#0781B8" transform="translate(62,81)"/>
<path d="M0 0 C0.34797604 4.43669452 0.47161563 7.94958338 -1.375 12.0625 C-5.35843824 15.00265679 -9.21164134 14.41121401 -14 14 C-12.66445565 10.02119078 -11.01381696 7.65301487 -8 4.75 C-6.948125 3.72132812 -6.948125 3.72132812 -5.875 2.671875 C-3.81008923 0.8306629 -2.7842857 0 0 0 Z " fill="#16739D" transform="translate(36,35)"/>
<path d="M0 0 C0.495 0.99 0.495 0.99 1 2 C-6.25899977 16.61952401 -19.44406911 29.51974545 -35 35 C-35.99 34.67 -36.98 34.34 -38 34 C-37.17757812 33.59910156 -36.35515625 33.19820312 -35.5078125 32.78515625 C-20.97522649 25.38461303 -8.78199039 13.78568259 0 0 Z " fill="#13719D" transform="translate(121,89)"/>
<path d="M0 0 C8.95652174 -0.7826087 8.95652174 -0.7826087 13 2.25 C15.93624544 6.28733748 17 7.9205602 17 13 C12.68711193 11.52769684 9.28218566 9.23423235 5.6875 6.5 C4.86282227 5.89478516 4.86282227 5.89478516 4.02148438 5.27734375 C2.63992549 4.23731309 1.31443702 3.12366546 0 2 C0 1.34 0 0.68 0 0 Z " fill="#0F7CAD" transform="translate(89,78)"/>
<path d="M0 0 C3.28654838 2.39644153 4.6837723 3.90536565 5.8125 7.8125 C5.874375 8.534375 5.93625 9.25625 6 10 C1.3110507 9.44380331 -2.19924267 8.11817327 -6.375 5.9375 C-7.43460937 5.38964844 -8.49421875 4.84179688 -9.5859375 4.27734375 C-10.38257812 3.85582031 -11.17921875 3.43429688 -12 3 C-12 2.34 -12 1.68 -12 1 C-7.93597888 -0.35467371 -4.2448674 -0.66279509 0 0 Z " fill="#0F7BAF" transform="translate(76,65)"/>
<path d="M0 0 C0 1.65 0 3.3 0 5 C-0.66 5 -1.32 5 -2 5 C-2.33 5.99 -2.66 6.98 -3 8 C-3.33 8.66 -3.66 9.32 -4 10 C-5.98 10 -7.96 10 -10 10 C-9.9375 7.8125 -9.9375 7.8125 -9 5 C-6.43314355 2.61372642 -3.61081552 0 0 0 Z " fill="#0D80BA" transform="translate(35,37)"/>
<path d="M0 0 C0.66 0.99 1.32 1.98 2 3 C1.125 6.6875 1.125 6.6875 0 10 C0.66 10 1.32 10 2 10 C2.33 8.68 2.66 7.36 3 6 C4.31625194 8.63250388 3.74813658 9.80179056 3.0625 12.625 C2.86785156 13.44226563 2.67320313 14.25953125 2.47265625 15.1015625 C2.23869141 16.04128906 2.23869141 16.04128906 2 17 C1.67 15.68 1.34 14.36 1 13 C-1.7839183 14.39195915 -1.97898997 16.15575779 -3 19 C-4.34247691 15.28581387 -3.63869571 12.69003413 -2.625 8.9375 C-2.34914062 7.89464844 -2.07328125 6.85179688 -1.7890625 5.77734375 C-1.23810614 3.83808647 -0.63751641 1.91254923 0 0 Z " fill="#1472A0" transform="translate(45,65)"/>
<path d="M0 0 C2.31 1.98 4.62 3.96 7 6 C5 7 5 7 2 7 C1.67 10.96 1.34 14.92 1 19 C-1 17 -1 17 -1.23046875 14.1015625 C-1.21628906 12.95429687 -1.20210937 11.80703125 -1.1875 10.625 C-1.18105469 9.48289062 -1.17460938 8.34078125 -1.16796875 7.1640625 C-1 4 -1 4 0 0 Z " fill="#177AA6" transform="translate(62,81)"/>
<path d="M0 0 C0.33 0 0.66 0 1 0 C1.04241723 2.33294775 1.04092937 4.66702567 1 7 C0.67 7.33 0.34 7.66 0 8 C-0.20604085 9.32781878 -0.3662959 10.66295895 -0.5 12 C-0.88888889 15.88888889 -0.88888889 15.88888889 -2 17 C-2.15582303 18.34015221 -2.25044142 19.68758903 -2.31640625 21.03515625 C-2.37924805 22.24848633 -2.37924805 22.24848633 -2.44335938 23.48632812 C-2.48267578 24.33646484 -2.52199219 25.18660156 -2.5625 26.0625 C-2.60568359 26.91650391 -2.64886719 27.77050781 -2.69335938 28.65039062 C-2.79976702 30.76672037 -2.90041731 32.88333813 -3 35 C-3.33 35 -3.66 35 -4 35 C-4.45436542 22.56805725 -4.02163112 11.84944883 0 0 Z " fill="#01192C" transform="translate(50,67)"/>
<path d="M0 0 C6.6 0 13.2 0 20 0 C20 2.31 20 4.62 20 7 C19.39414063 6.65066406 18.78828125 6.30132812 18.1640625 5.94140625 C12.04585798 2.61875057 6.9570902 1.16282552 0 1 C0 0.67 0 0.34 0 0 Z " fill="#1274A0" transform="translate(52,0)"/>
<path d="M0 0 C0.66 0.33 1.32 0.66 2 1 C0.515 3.475 0.515 3.475 -1 6 C-0.01 6.33 0.98 6.66 2 7 C0.8125 9 0.8125 9 -1 11 C-3.6875 11.25 -3.6875 11.25 -6 11 C-5.55530671 5.96014269 -3.28656638 3.62365012 0 0 Z " fill="#1276A6" transform="translate(40,59)"/>
<path d="M0 0 C6.2225487 0.13995352 12.10489348 1.03496449 18 3 C18 3.66 18 4.32 18 5 C12.06 4.34 6.12 3.68 0 3 C0.33 4.32 0.66 5.64 1 7 C0.34 7 -0.32 7 -1 7 C-1.04254356 5.00045254 -1.04080783 2.99958364 -1 1 C-0.67 0.67 -0.34 0.34 0 0 Z " fill="#00111F" transform="translate(46,28)"/>
<path d="M0 0 C1.93956814 0.255602 3.87665989 0.53004646 5.8125 0.8125 C7.43091797 1.03873047 7.43091797 1.03873047 9.08203125 1.26953125 C12.06440991 2.01612403 13.14223479 2.62075684 15 5 C13.02 6.65 11.04 8.3 9 10 C7.95550089 6.86650268 8.06576355 6.01031744 9 3 C7.700625 2.87625 6.40125 2.7525 5.0625 2.625 C2.84765625 2.4140625 2.84765625 2.4140625 1 2 C0.67 1.34 0.34 0.68 0 0 Z " fill="#1377A5" transform="translate(79,95)"/>
<path d="M0 0 C6.40353322 -0.2361959 11.84629161 0.176679 18 2 C17.67 2.99 17.34 3.98 17 5 C16.34 4.67 15.68 4.34 15 4 C15 3.34 15 2.68 15 2 C11.04 2 7.08 2 3 2 C3.33 3.32 3.66 4.64 4 6 C2.62437146 4.71034824 1.29233607 3.37310707 0 2 C0 1.34 0 0.68 0 0 Z " fill="#1A759E" transform="translate(46,31)"/>
<path d="M0 0 C3 3.625 3 3.625 3 7 C-1.84659077 6.40895235 -5.60748167 5.02055843 -10 3 C-6.94736336 2.01879536 -5.05263664 2.01879536 -2 3 C-2 3.66 -2 4.32 -2 5 C-1.34 4.67 -0.68 4.34 0 4 C0 2.68 0 1.36 0 0 Z " fill="#167099" transform="translate(79,68)"/>
<path d="M0 0 C0.33 0 0.66 0 1 0 C1.33 3.63 1.66 7.26 2 11 C-5.92 11.495 -5.92 11.495 -14 12 C-13.01 10.68 -12.02 9.36 -11 8 C-11 8.66 -11 9.32 -11 10 C-7.04 10 -3.08 10 1 10 C0.67 9.01 0.34 8.02 0 7 C-0.03954234 4.66700175 -0.04401732 2.33291811 0 0 Z " fill="#052E49" transform="translate(76,25)"/>
<path d="M0 0 C1.26582219 3.86723631 1.1118765 7.73151262 1.0625 11.75 C1.05798828 12.44738281 1.05347656 13.14476563 1.04882812 13.86328125 C1.0371002 15.57555803 1.01916653 17.28779033 1 19 C0.34 18.67 -0.32 18.34 -1 18 C-1.33 12.39 -1.66 6.78 -2 1 C-1.34 0.67 -0.68 0.34 0 0 Z " fill="#01192B" transform="translate(61,81)"/>
<path d="M0 0 C0.28571429 7.42857143 0.28571429 7.42857143 -2 11 C-2.66 11 -3.32 11 -4 11 C-4.15631692 4.12205567 -4.15631692 4.12205567 -3 1 C-1 0 -1 0 0 0 Z " fill="#0785BD" transform="translate(49,64)"/>
<path d="M0 0 C0.33 1.32 0.66 2.64 1 4 C0.34 4 -0.32 4 -1 4 C-1.33 4.99 -1.66 5.98 -2 7 C-2.33 7.66 -2.66 8.32 -3 9 C-4.32 8.67 -5.64 8.34 -7 8 C-5.98823563 4.59679258 -5.35156418 3.24274669 -2.375 1.1875 C-1.59125 0.795625 -0.8075 0.40375 0 0 Z " fill="#0485C0" transform="translate(34,38)"/>
<path d="M0 0 C0.66 0.33 1.32 0.66 2 1 C1.67 2.32 1.34 3.64 1 5 C4.68754757 4.50168276 6.60490662 3.89932357 9 1 C8.9375 2.8125 8.9375 2.8125 8 5 C4.4375 6.75 4.4375 6.75 1 8 C0.34 7.34 -0.32 6.68 -1 6 C-0.625 2.875 -0.625 2.875 0 0 Z " fill="#031524" transform="translate(33,65)"/>
<path d="M0 0 C0.99 0 1.98 0 3 0 C3 0.66 3 1.32 3 2 C2.34 2 1.68 2 1 2 C1 3.65 1 5.3 1 7 C0.34 7 -0.32 7 -1 7 C-1 7.99 -1 8.98 -1 10 C-1.66 10 -2.32 10 -3 10 C-2.39009109 6.44219804 -1.4216319 3.3171411 0 0 Z " fill="#0684BF" transform="translate(56,44)"/>
<path d="M0 0 C2.64 0 5.28 0 8 0 C8.33 0.99 8.66 1.98 9 3 C9.66 3 10.32 3 11 3 C11 3.66 11 4.32 11 5 C7.27566618 3.7874262 3.62197194 2.49140021 0 1 C0 0.67 0 0.34 0 0 Z " fill="#14729F" transform="translate(90,44)"/>
<path d="M0 0 C-4.95 2.97 -4.95 2.97 -10 6 C-10 5.01 -10 4.02 -10 3 C-9.34 3 -8.68 3 -8 3 C-8 2.34 -8 1.68 -8 1 C-4.59449725 -1.06762667 -4.18836538 -1.04709135 0 0 Z " fill="#00111E" transform="translate(47,56)"/>
<path d="M0 0 C2.62386487 3.06117568 3 3.73173127 3 8 C0.525 7.01 0.525 7.01 -2 6 C-1.34 5.67 -0.68 5.34 0 5 C0 3.35 0 1.7 0 0 Z " fill="#176186" transform="translate(103,83)"/>
<path d="M0 0 C4.43458973 1.3937282 6.87378374 3.60582235 10 7 C6.433255 7 5.89456323 6.36308045 3.3125 4.0625 C2.68988281 3.51722656 2.06726563 2.97195312 1.42578125 2.41015625 C0.95527344 1.94480469 0.48476562 1.47945312 0 1 C0 0.67 0 0.34 0 0 Z " fill="#1576A1" transform="translate(108,53)"/>
<path d="M0 0 C1.32 0.33 2.64 0.66 4 1 C2.02 2.98 0.04 4.96 -2 7 C-2.66 6.67 -3.32 6.34 -4 6 C-2.68 4.02 -1.36 2.04 0 0 Z " fill="#0C7DB1" transform="translate(107,106)"/>
<path d="M0 0 C2.31 0 4.62 0 7 0 C7 0.66 7 1.32 7 2 C4.69 2.33 2.38 2.66 0 3 C0 2.01 0 1.02 0 0 Z " fill="#093751" transform="translate(76,123)"/>
<path d="M0 0 C0.99 0.33 1.98 0.66 3 1 C3 3.64 3 6.28 3 9 C0.87491756 5.81237635 0.4979837 3.73487777 0 0 Z " fill="#1479A9" transform="translate(72,7)"/>
</svg>
